<?xml version="1.0" encoding="UTF-8" standalone="no"?>
<!-- Created with Inkscape (http://www.inkscape.org/) -->

<svg
   width="6.5748491mm"
   height="10.31996mm"
   viewBox="0 0 6.5748491 10.31996"
   version="1.1"
   id="svg1"
   xml:space="preserve"
   xmlns="http://www.w3.org/2000/svg"
   xmlns:svg="http://www.w3.org/2000/svg"><defs
     id="defs1" /><g
     id="layer1"
     transform="translate(-96.4793,-148.5464)"><g
       id="g9-5-5"
       transform="matrix(0.27811788,0,0,0.27811788,-26.553966,140.62345)"
       style="fill:#ffffff;fill-opacity:1"><path
         style="font-weight:600;font-size:31.0444px;line-height:0px;font-family:Poppins;-inkscape-font-specification:'Poppins Semi-Bold';letter-spacing:-2.24896px;fill:#ffffff;fill-opacity:1;stroke-width:0.264583"
         d="m 406.4769,119.55042 v 21.66899 h -3.14113 a 1.20508,1.20508 45 0 1 -1.20508,-1.20508 l 0,-12.88908 -5.27263,10.70002 a 1.9372711,1.9372711 148.11631 0 1 -1.73775,1.08097 h -0.88055 a 1.9418541,1.9418541 31.823 0 1 -1.74003,-1.07983 l -5.3014,-10.70116 v 12.88908 a 1.20508,1.20508 135 0 1 -1.20508,1.20508 h -3.14113 v -21.66899 h 3.73098 a 1.9489019,1.9489019 31.730075 0 1 1.74353,1.07809 l 6.3534,12.72078 6.35341,-12.72078 a 1.9489031,1.9489031 148.26994 0 1 1.74353,-1.07809 z"
         id="text6-6-9-3-7-2-7-9-9"
         transform="translate(59.531259,-83.343745)" /><path
         style="baseline-shift:baseline;display:inline;overflow:visible;vector-effect:none;fill:#ffffff;fill-opacity:1;stroke-linecap:round;stroke-miterlimit:2.4;enable-background:accumulate;stop-color:#000000"
         d="m 319.57281,77.143841 -0.006,4.207967 h 1.517 a 1.5631608,1.5631608 135.09209 0 0 1.56315,-1.558136 l 0.008,-2.641537 h 24.30505 v 2.641529 a 1.558144,1.558144 45 0 0 1.55814,1.558144 h 1.60808 v -4.207962 a 4.6145492,4.6145492 45 0 0 -4.61455,-4.614549 h -21.31731 a 4.6216157,4.6216157 135.04384 0 0 -4.62161,4.614544 z"
         id="path1-3-2-50-6-0-4-9-7-9-2-6-4-7"
         transform="matrix(0.77340775,0,0,0.77340775,195.22303,-27.606902)" /><path
         style="baseline-shift:baseline;display:inline;overflow:visible;vector-effect:none;fill:#ffffff;fill-opacity:1;stroke-linecap:round;stroke-miterlimit:2.4;enable-background:accumulate;stop-color:#000000"
         d="m 319.57281,77.143841 -0.006,4.207967 h 1.52121 a 1.5589345,1.5589345 135.09209 0 0 1.55893,-1.553923 l 0.009,-2.64575 h 24.30505 v 2.645742 a 1.5539313,1.5539313 45 0 0 1.55393,1.553931 h 1.61229 v -4.207962 a 4.6145492,4.6145492 45 0 0 -4.61455,-4.614549 h -21.31731 a 4.6216157,4.6216157 135.04384 0 0 -4.62161,4.614544 z"
         id="path1-3-2-50-6-0-4-9-7-9-5-9-7"
         transform="matrix(-0.77340775,0,0,-0.77340775,713.17374,121.68896)" /></g></g></svg>
