<svg xmlns="http://www.w3.org/2000/svg" width="152.034" height="58.521" viewBox="0 0 152.034 58.521">
  <path id="Path_43795" data-name="Path 43795" d="M49.093,35.268l13.083-8.574L46.5,26.849l4.924-14.841L38.74,21.321,34.189,6.355,29.655,21.42l-12.689-9.4,5.011,14.894-15.651-.2L19.064,35.63,6.42,44.719l15.714-.258L17.079,59.306l12.709-9.652,4.393,15.222L38.9,49.723l12.461,9.671L46.02,44.386l16.015.4Zm7.107-6.7-8.6,5.6-2.831-2.081L45.889,28.7ZM48.212,16.454,44.725,26.866l-4.285.042L39.3,23.154Zm-14.04-3.826,3,9.847-3.06,2.246-2.925-2.167ZM20.564,16.966,29.1,23.26l-1.122,3.727-4.135-.052Zm-8.006,11.74H22.581l1.191,3.538-3.049,2.192Zm-.5,14.159L20.591,36.7l3.38,2.366-1.2,3.538Zm8.66,11.4,3.468-9.837,4.075-.067.987,3.422Zm13.555,4.221-2.9-10.034,2.979-2.262,2.878,2.235ZM37.793,46.5l-3.416-2.615-3.547,2.7-1.2-4.145-4.785.117,1.475-4.184L22.243,35.5l3.572-2.581-1.387-4.216h4.906l1.3-4.319L34.177,27l3.556-2.673,1.36,4.463,5.01-.066L42.737,32.8l3.251,2.414L41.93,37.857l1.426,4.3-4.22-.234Zm9.383,7.184L39.5,47.807l1.108-3.556,3.472.087ZM45.265,42.266l-1.3-3.64,3.512-2.3,8.824,6.554Z" transform="translate(-6.326 -6.355)" fill="#00194a"/>
  <g id="Group_44589" data-name="Group 44589" transform="translate(60.899 11.359)">
    <path id="Path_43658" data-name="Path 43658" d="M104.535,20,97.048,31.243,89.561,20H79.471L92.842,40.079l.017-.011v14.8h8.388V40.074l.007.005,8.583-12.891h9.313V54.866h8.388V27.189h9.811V20Z" transform="translate(-79.471 -19.998)" fill="#00194a"/>
    <path id="Path_43659" data-name="Path 43659" d="M174.559,20v7.191h6.256l-6.256,6.281v7.557a10.415,10.415,0,0,1-.344,2.708,6.4,6.4,0,0,1-1.128,2.29,5.5,5.5,0,0,1-2.036,1.6,7.994,7.994,0,0,1-6.034,0,5.286,5.286,0,0,1-2.011-1.6,6.961,6.961,0,0,1-1.128-2.29,9.75,9.75,0,0,1-.368-2.708V20h-8.339v7.191h6.207l-6.207,6.232v8.3a15.37,15.37,0,0,0,1.03,5.737,12.505,12.505,0,0,0,2.943,4.433,13.418,13.418,0,0,0,4.66,2.881,18.9,18.9,0,0,0,12.337,0,13.888,13.888,0,0,0,4.733-2.881,12.485,12.485,0,0,0,3.017-4.433,15.063,15.063,0,0,0,1.055-5.737V20Z" transform="translate(-91.811 -19.998)" fill="#00194a"/>
  </g>
</svg>
