<svg width="24" height="24" viewBox="0 0 24 24" fill="none" xmlns="http://www.w3.org/2000/svg">
<path d="M14.4959 3.9989H9.49731L6.99801 6.99807H3.99884C3.46855 6.99807 2.95998 7.20873 2.58501 7.5837C2.21004 7.95866 1.99939 8.46723 1.99939 8.99752V17.995C1.99939 18.5253 2.21004 19.0339 2.58501 19.4088C2.95998 19.7838 3.46855 19.9945 3.99884 19.9945H19.9944C20.5247 19.9945 21.0333 19.7838 21.4082 19.4088C21.7832 19.0339 21.9939 18.5253 21.9939 17.995V8.99752C21.9939 8.46723 21.7832 7.95866 21.4082 7.5837C21.0333 7.20873 20.5247 6.99807 19.9944 6.99807H16.9952L14.4959 3.9989Z" stroke="#FDCB6E" stroke-width="1.99945" stroke-linecap="round" stroke-linejoin="round"/>
<path d="M11.9967 15.9956C13.6531 15.9956 14.9959 14.6528 14.9959 12.9964C14.9959 11.34 13.6531 9.99722 11.9967 9.99722C10.3403 9.99722 8.99756 11.34 8.99756 12.9964C8.99756 14.6528 10.3403 15.9956 11.9967 15.9956Z" stroke="#FDCB6E" stroke-width="1.99945" stroke-linecap="round" stroke-linejoin="round"/>
</svg>
