<svg width="24" height="24" viewBox="0 0 24 24" fill="none" xmlns="http://www.w3.org/2000/svg">
<path d="M5.79834 11.2969L1.99939 21.9939L12.6964 18.205" stroke="#E84393" stroke-width="1.99945" stroke-linecap="round" stroke-linejoin="round"/>
<path d="M3.9989 2.99918H4.0089" stroke="#E84393" stroke-width="1.99945" stroke-linecap="round" stroke-linejoin="round"/>
<path d="M21.9939 7.99779H22.0039" stroke="#E84393" stroke-width="1.99945" stroke-linecap="round" stroke-linejoin="round"/>
<path d="M14.9958 1.99945H15.0058" stroke="#E84393" stroke-width="1.99945" stroke-linecap="round" stroke-linejoin="round"/>
<path d="M21.9939 19.9945H22.0039" stroke="#E84393" stroke-width="1.99945" stroke-linecap="round" stroke-linejoin="round"/>
<path d="M21.9939 1.99945L19.7545 2.74924C19.1171 2.96157 18.5732 3.38871 18.2158 3.95763C17.8583 4.52656 17.7096 5.20196 17.795 5.86838C17.895 6.72814 17.2252 7.49793 16.3454 7.49793H15.9655C15.1058 7.49793 14.366 8.09776 14.206 8.93753L13.9961 9.99724" stroke="#E84393" stroke-width="1.99945" stroke-linecap="round" stroke-linejoin="round"/>
<path d="M21.9939 12.9964L21.1741 12.6665C20.3143 12.3266 19.3546 12.8664 19.1946 13.7762C19.0847 14.476 18.4748 14.9959 17.765 14.9959H16.9952" stroke="#E84393" stroke-width="1.99945" stroke-linecap="round" stroke-linejoin="round"/>
<path d="M10.997 1.99945L11.3269 2.81922C11.6668 3.67899 11.127 4.63872 10.2172 4.79868C9.51741 4.89865 8.99756 5.51848 8.99756 6.22828V6.99807" stroke="#E84393" stroke-width="1.99945" stroke-linecap="round" stroke-linejoin="round"/>
<path d="M10.997 12.9964C12.9264 14.9259 13.8262 17.1652 12.9964 17.995C12.1666 18.8248 9.92726 17.925 7.99779 15.9956C6.06833 14.0661 5.16857 11.8267 5.99834 10.997C6.82812 10.1672 9.0675 11.0669 10.997 12.9964Z" stroke="#E84393" stroke-width="1.99945" stroke-linecap="round" stroke-linejoin="round"/>
</svg>
