<svg width="18" height="18" viewBox="0 0 18 18" fill="none" xmlns="http://www.w3.org/2000/svg">
<g clip-path="url(#clip0_4_2034)">
<path d="M11.6062 9.66623L12.7423 16.0599C12.755 16.1352 12.7445 16.2125 12.712 16.2817C12.6796 16.3508 12.6268 16.4084 12.5608 16.4467C12.4947 16.485 12.4186 16.5022 12.3425 16.4961C12.2664 16.49 12.1939 16.4607 12.1349 16.4123L9.45025 14.3974C9.32064 14.3005 9.16321 14.2482 9.00143 14.2482C8.83965 14.2482 8.68222 14.3005 8.55261 14.3974L5.86347 16.4116C5.80447 16.4599 5.73214 16.4891 5.65612 16.4952C5.5801 16.5014 5.50402 16.4842 5.43803 16.446C5.37203 16.4078 5.31925 16.3503 5.28674 16.2814C5.25422 16.2124 5.24352 16.1351 5.25605 16.0599L6.3914 9.66623" stroke="#1E90FF" stroke-width="1.4998" stroke-linecap="round" stroke-linejoin="round"/>
<path d="M8.99881 10.4986C11.4838 10.4986 13.4982 8.48414 13.4982 5.99919C13.4982 3.51424 11.4838 1.49979 8.99881 1.49979C6.51386 1.49979 4.4994 3.51424 4.4994 5.99919C4.4994 8.48414 6.51386 10.4986 8.99881 10.4986Z" stroke="#1E90FF" stroke-width="1.4998" stroke-linecap="round" stroke-linejoin="round"/>
</g>
<defs>
<clipPath id="clip0_4_2034">
<rect width="17.9976" height="17.9976" fill="white"/>
</clipPath>
</defs>
</svg>
