<svg width="24" height="24" viewBox="0 0 24 24" fill="none" xmlns="http://www.w3.org/2000/svg">
<path d="M5.99835 10.9969H9.99725" stroke="#9B59B6" stroke-width="1.99945" stroke-linecap="round" stroke-linejoin="round"/>
<path d="M7.9978 8.9975V12.9964" stroke="#9B59B6" stroke-width="1.99945" stroke-linecap="round" stroke-linejoin="round"/>
<path d="M14.9958 11.9967H15.0058" stroke="#9B59B6" stroke-width="1.99945" stroke-linecap="round" stroke-linejoin="round"/>
<path d="M17.995 9.99725H18.005" stroke="#9B59B6" stroke-width="1.99945" stroke-linecap="round" stroke-linejoin="round"/>
<path d="M17.3152 4.9986H6.67816C5.68871 4.99883 4.73448 5.36587 3.99993 6.02877C3.26538 6.69168 2.80267 7.60337 2.70126 8.5876C2.69526 8.63959 2.69126 8.68857 2.68426 8.73956C2.60328 9.41337 1.99945 14.452 1.99945 15.9956C1.99945 16.791 2.31543 17.5538 2.87789 18.1163C3.44034 18.6787 4.20319 18.9947 4.99862 18.9947C5.99834 18.9947 6.49821 18.4949 6.99807 17.995L8.41168 16.5814C8.78656 16.2064 9.29504 15.9957 9.82528 15.9956H14.1681C14.6983 15.9957 15.2068 16.2064 15.5817 16.5814L16.9953 17.995C17.4952 18.4949 17.995 18.9947 18.9947 18.9947C19.7902 18.9947 20.553 18.6787 21.1155 18.1163C21.6779 17.5538 21.9939 16.791 21.9939 15.9956C21.9939 14.451 21.3901 9.41337 21.3091 8.73956C21.3021 8.68957 21.2981 8.63959 21.2921 8.5886C21.1909 7.60419 20.7283 6.69226 19.9937 6.02915C19.2592 5.36604 18.3048 4.99885 17.3152 4.9986Z" stroke="#9B59B6" stroke-width="1.99945" stroke-linecap="round" stroke-linejoin="round"/>
</svg>
