<svg width="24" height="24" viewBox="0 0 24 24" fill="none" xmlns="http://www.w3.org/2000/svg">
<path d="M8.99751 16.9953H6.99807C5.67235 16.9953 4.40093 16.4687 3.46351 15.5312C2.52609 14.5938 1.99945 13.3224 1.99945 11.9967C1.99945 10.671 2.52609 9.39956 3.46351 8.46214C4.40093 7.52472 5.67235 6.99808 6.99807 6.99808H8.99751" stroke="#F39C12" stroke-width="1.99945" stroke-linecap="round" stroke-linejoin="round"/>
<path d="M14.9958 6.99808H16.9953C18.321 6.99808 19.5924 7.52472 20.5299 8.46214C21.4673 9.39956 21.9939 10.671 21.9939 11.9967C21.9939 13.3224 21.4673 14.5938 20.5299 15.5312C19.5924 16.4687 18.321 16.9953 16.9953 16.9953H14.9958" stroke="#F39C12" stroke-width="1.99945" stroke-linecap="round" stroke-linejoin="round"/>
<path d="M7.9978 11.9967H15.9956" stroke="#F39C12" stroke-width="1.99945" stroke-linecap="round" stroke-linejoin="round"/>
</svg>
