<svg width="18" height="18" viewBox="0 0 18 18" fill="none" xmlns="http://www.w3.org/2000/svg">
<g clip-path="url(#clip0_4_2020)">
<path d="M11.9984 15.7479V14.2481C11.9984 13.4526 11.6824 12.6896 11.1198 12.1271C10.5573 11.5645 9.79435 11.2485 8.99881 11.2485H4.4994C3.70386 11.2485 2.9409 11.5645 2.37836 12.1271C1.81583 12.6896 1.4998 13.4526 1.4998 14.2481V15.7479" stroke="#1E90FF" stroke-width="1.4998" stroke-linecap="round" stroke-linejoin="round"/>
<path d="M6.74911 8.2489C8.40574 8.2489 9.74871 6.90593 9.74871 5.2493C9.74871 3.59266 8.40574 2.24969 6.74911 2.24969C5.09247 2.24969 3.7495 3.59266 3.7495 5.2493C3.7495 6.90593 5.09247 8.2489 6.74911 8.2489Z" stroke="#1E90FF" stroke-width="1.4998" stroke-linecap="round" stroke-linejoin="round"/>
<path d="M16.4978 15.7479V14.2481C16.4973 13.5835 16.2761 12.9379 15.8689 12.4126C15.4617 11.8873 14.8916 11.5122 14.2481 11.346" stroke="#1E90FF" stroke-width="1.4998" stroke-linecap="round" stroke-linejoin="round"/>
<path d="M11.9984 2.3472C12.6436 2.5124 13.2155 2.88765 13.6239 3.41379C14.0323 3.93993 14.254 4.58702 14.254 5.25306C14.254 5.9191 14.0323 6.5662 13.6239 7.09234C13.2155 7.61847 12.6436 7.99372 11.9984 8.15893" stroke="#1E90FF" stroke-width="1.4998" stroke-linecap="round" stroke-linejoin="round"/>
</g>
<defs>
<clipPath id="clip0_4_2020">
<rect width="17.9976" height="17.9976" fill="white"/>
</clipPath>
</defs>
</svg>
