<svg width="22" height="16" viewBox="0 0 22 16" fill="none" xmlns="http://www.w3.org/2000/svg">
<path d="M16.4936 14.9959H7.996C6.69822 14.9955 5.4261 14.6343 4.32179 13.9526C3.21748 13.2709 2.32449 12.2955 1.7426 11.1355C1.16071 9.97552 0.91285 8.67655 1.02672 7.38378C1.14058 6.09101 1.61169 4.85537 2.38739 3.81493C3.1631 2.77449 4.21284 1.97025 5.41931 1.49208C6.62578 1.0139 7.94145 0.880633 9.21931 1.10716C10.4972 1.33369 11.6869 1.91109 12.6554 2.77484C13.624 3.63859 14.3333 4.75467 14.7041 5.99834H16.4936C17.6868 5.99834 18.8311 6.47232 19.6747 7.316C20.5184 8.15968 20.9924 9.30395 20.9924 10.4971C20.9924 11.6902 20.5184 12.8345 19.6747 13.6782C18.8311 14.5219 17.6868 14.9959 16.4936 14.9959Z" stroke="#00BFFF" stroke-width="1.99945" stroke-linecap="round" stroke-linejoin="round"/>
</svg>
