<svg width="24" height="24" viewBox="0 0 24 24" fill="none" xmlns="http://www.w3.org/2000/svg">
<path d="M14.9958 1.99945H5.99833C5.46805 1.99945 4.95948 2.21011 4.58451 2.58507C4.20954 2.96004 3.99889 3.46861 3.99889 3.9989V19.9945C3.99889 20.5248 4.20954 21.0333 4.58451 21.4083C4.95948 21.7833 5.46805 21.9939 5.99833 21.9939H17.995C18.5253 21.9939 19.0339 21.7833 19.4088 21.4083C19.7838 21.0333 19.9945 20.5248 19.9945 19.9945V6.99807L14.9958 1.99945Z" stroke="#9B59B6" stroke-width="1.99945" stroke-linecap="round" stroke-linejoin="round"/>
<path d="M13.9961 1.99945V5.99834C13.9961 6.52863 14.2068 7.0372 14.5817 7.41217C14.9567 7.78713 15.4653 7.99779 15.9956 7.99779H19.9945" stroke="#9B59B6" stroke-width="1.99945" stroke-linecap="round" stroke-linejoin="round"/>
<path d="M9.99779 8.9975H7.99779" stroke="#9B59B6" stroke-width="1.99945" stroke-linecap="round" stroke-linejoin="round"/>
<path d="M15.9956 12.9964H7.99779" stroke="#9B59B6" stroke-width="1.99945" stroke-linecap="round" stroke-linejoin="round"/>
<path d="M15.9956 16.9953H7.99779" stroke="#9B59B6" stroke-width="1.99945" stroke-linecap="round" stroke-linejoin="round"/>
</svg>
