<svg width="24" height="24" viewBox="0 0 24 24" fill="none" xmlns="http://www.w3.org/2000/svg">
<path d="M12.9964 3.9989H15.9956C16.5259 3.9989 17.0344 4.20956 17.4094 4.58453C17.7844 4.95949 17.995 5.46806 17.995 5.99835V19.9945" stroke="#1ABC9C" stroke-width="1.99945" stroke-linecap="round" stroke-linejoin="round"/>
<path d="M1.99945 19.9945H4.99945" stroke="#1ABC9C" stroke-width="1.99945" stroke-linecap="round" stroke-linejoin="round"/>
<path d="M12.9964 19.9945H21.9939" stroke="#1ABC9C" stroke-width="1.99945" stroke-linecap="round" stroke-linejoin="round"/>
<path d="M9.99724 11.9967V12.0067" stroke="#1ABC9C" stroke-width="1.99945" stroke-linecap="round" stroke-linejoin="round"/>
<path d="M12.9964 4.56073V20.7133C12.9964 20.8651 12.9617 21.015 12.8951 21.1514C12.8285 21.2879 12.7317 21.4074 12.612 21.5009C12.4923 21.5944 12.3529 21.6593 12.2044 21.6909C12.0559 21.7224 11.9021 21.7197 11.7547 21.683L4.99861 19.9945V5.56045C4.99868 5.11458 5.14777 4.68153 5.4222 4.33012C5.69662 3.97871 6.08063 3.72911 6.51319 3.62099L10.5121 2.62127C10.8068 2.54761 11.1143 2.54206 11.4115 2.60502C11.7086 2.66799 11.9875 2.79783 12.227 2.98468C12.4664 3.17153 12.6602 3.41048 12.7935 3.68339C12.9268 3.9563 12.9962 4.25699 12.9964 4.56073Z" stroke="#1ABC9C" stroke-width="1.99945" stroke-linecap="round" stroke-linejoin="round"/>
</svg>
