<svg width="24" height="24" viewBox="0 0 24 24" fill="none" xmlns="http://www.w3.org/2000/svg">
<path d="M19.9945 1.99945H3.9989C2.89463 1.99945 1.99945 2.89463 1.99945 3.9989V7.99779C1.99945 9.10205 2.89463 9.99724 3.9989 9.99724H19.9945C21.0987 9.99724 21.9939 9.10205 21.9939 7.99779V3.9989C21.9939 2.89463 21.0987 1.99945 19.9945 1.99945Z" stroke="#E67E22" stroke-width="1.99945" stroke-linecap="round" stroke-linejoin="round"/>
<path d="M19.9945 13.9961H3.9989C2.89463 13.9961 1.99945 14.8913 1.99945 15.9956V19.9945C1.99945 21.0987 2.89463 21.9939 3.9989 21.9939H19.9945C21.0987 21.9939 21.9939 21.0987 21.9939 19.9945V15.9956C21.9939 14.8913 21.0987 13.9961 19.9945 13.9961Z" stroke="#E67E22" stroke-width="1.99945" stroke-linecap="round" stroke-linejoin="round"/>
<path d="M5.99835 5.99835H6.00835" stroke="#E67E22" stroke-width="1.99945" stroke-linecap="round" stroke-linejoin="round"/>
<path d="M5.99835 17.995H6.00835" stroke="#E67E22" stroke-width="1.99945" stroke-linecap="round" stroke-linejoin="round"/>
</svg>
