<svg width="18" height="18" viewBox="0 0 18 18" fill="none" xmlns="http://www.w3.org/2000/svg">
<g clip-path="url(#clip0_4_2188)">
<path d="M1.4998 5.24926L4.80686 1.9422C4.94639 1.80184 5.11231 1.69048 5.29507 1.61455C5.47783 1.53861 5.67381 1.4996 5.87172 1.49976H12.1259C12.3238 1.4996 12.5198 1.53861 12.7025 1.61455C12.8853 1.69048 13.0512 1.80184 13.1908 1.9422L16.4978 5.24926" stroke="#6C5CE7" stroke-width="1.4998" stroke-linecap="round" stroke-linejoin="round"/>
<path d="M2.9996 8.99878V14.998C2.9996 15.3958 3.15762 15.7772 3.43888 16.0585C3.72015 16.3398 4.10163 16.4978 4.4994 16.4978H13.4982C13.896 16.4978 14.2775 16.3398 14.5587 16.0585C14.84 15.7772 14.998 15.3958 14.998 14.998V8.99878" stroke="#6C5CE7" stroke-width="1.4998" stroke-linecap="round" stroke-linejoin="round"/>
<path d="M11.2485 16.4978V13.4982C11.2485 13.1004 11.0905 12.719 10.8092 12.4377C10.528 12.1564 10.1465 11.9984 9.74871 11.9984H8.2489C7.85113 11.9984 7.46965 12.1564 7.18839 12.4377C6.90712 12.719 6.7491 13.1004 6.7491 13.4982V16.4978" stroke="#6C5CE7" stroke-width="1.4998" stroke-linecap="round" stroke-linejoin="round"/>
<path d="M1.4998 5.24927H16.4978" stroke="#6C5CE7" stroke-width="1.4998" stroke-linecap="round" stroke-linejoin="round"/>
<path d="M16.4978 5.24927V7.49897C16.4978 7.89674 16.3398 8.27822 16.0585 8.55949C15.7773 8.84076 15.3958 8.99877 14.998 8.99877C14.5599 8.97465 14.1414 8.80885 13.8057 8.52633C13.7162 8.46167 13.6086 8.42687 13.4982 8.42687C13.3878 8.42687 13.2802 8.46167 13.1908 8.52633C12.855 8.80885 12.4365 8.97465 11.9984 8.99877C11.5603 8.97465 11.1418 8.80885 10.8061 8.52633C10.7166 8.46167 10.609 8.42687 10.4986 8.42687C10.3882 8.42687 10.2806 8.46167 10.1911 8.52633C9.8554 8.80885 9.43695 8.97465 8.99881 8.99877C8.56067 8.97465 8.14222 8.80885 7.80646 8.52633C7.71699 8.46167 7.6094 8.42687 7.49901 8.42687C7.38861 8.42687 7.28102 8.46167 7.19155 8.52633C6.85579 8.80885 6.43735 8.97465 5.9992 8.99877C5.56106 8.97465 5.14262 8.80885 4.80686 8.52633C4.71739 8.46167 4.6098 8.42687 4.4994 8.42687C4.38901 8.42687 4.28142 8.46167 4.19194 8.52633C3.85619 8.80885 3.43774 8.97465 2.9996 8.99877C2.60183 8.99877 2.22035 8.84076 1.93908 8.55949C1.65782 8.27822 1.4998 7.89674 1.4998 7.49897V5.24927" stroke="#6C5CE7" stroke-width="1.4998" stroke-linecap="round" stroke-linejoin="round"/>
</g>
<defs>
<clipPath id="clip0_4_2188">
<rect width="17.9976" height="17.9976" fill="white"/>
</clipPath>
</defs>
</svg>
