<?xml version="1.0" standalone="no"?>
<!DOCTYPE svg PUBLIC "-//W3C//DTD SVG 20010904//EN"
 "http://www.w3.org/TR/2001/REC-SVG-20010904/DTD/svg10.dtd">
<svg version="1.0" xmlns="http://www.w3.org/2000/svg"
 width="256.000000pt" height="256.000000pt" viewBox="0 0 256.000000 256.000000"
 preserveAspectRatio="xMidYMid meet">

<g transform="translate(0.000000,256.000000) scale(0.100000,-0.100000)"
fill="#000000" stroke="none">
<path d="M1600 2158 c-149 -101 -296 -239 -367 -345 l-41 -63 -11 28 c-9 24
-10 22 -5 -16 3 -24 2 -41 -3 -40 -5 2 -21 -10 -36 -27 -19 -22 -26 -26 -27
-14 0 24 60 135 72 131 5 -1 7 1 4 6 -3 5 6 25 19 45 14 20 25 44 25 54 -1 13
-6 9 -17 -12 -14 -24 -18 -27 -21 -12 -3 17 -5 17 -28 2 -24 -15 -24 -15 -24
17 0 39 -8 32 -48 -44 -17 -32 -32 -53 -34 -46 -4 12 -68 -82 -68 -100 0 -7
-4 -12 -10 -12 -5 0 -10 7 -10 15 0 8 -4 15 -10 15 -5 0 -10 -4 -10 -10 0 -5
-22 -50 -49 -98 -27 -49 -59 -121 -71 -161 -17 -59 -24 -72 -38 -67 -16 6 -16
5 0 -7 16 -13 16 -15 -2 -45 -11 -18 -18 -32 -15 -32 2 0 -7 -12 -21 -27 -23
-25 -24 -28 -7 -34 10 -4 13 -8 7 -8 -13 -1 -70 -52 -68 -60 3 -13 -30 -71
-40 -72 -6 0 -2 -4 9 -9 18 -8 17 -10 -12 -21 -42 -17 -43 -43 -4 -89 27 -32
31 -33 43 -19 7 9 28 19 46 23 19 3 46 15 62 26 34 25 54 26 22 2 l-22 -17 31
-50 c29 -47 30 -49 5 -26 l-25 24 12 -34 c15 -44 12 -41 47 -45 27 -3 30 -1
31 24 l1 27 7 -25 c6 -21 3 -27 -18 -37 -14 -7 -35 -11 -46 -8 -11 2 -27 0
-34 -5 -12 -7 -12 -12 2 -34 21 -31 47 -46 73 -41 10 2 24 4 30 4 16 1 59 43
121 119 30 37 78 84 106 105 28 21 61 49 73 62 25 28 86 55 120 55 16 0 27 8
33 23 9 24 76 62 126 71 30 6 24 2 -25 -16 l-25 -10 23 -9 c13 -5 26 -18 29
-29 4 -16 8 -18 19 -9 14 11 16 9 18 -21 1 -8 11 -19 24 -25 23 -10 25 -17 27
-115 1 -31 4 -60 7 -65 7 -13 -27 -77 -36 -68 -4 4 -4 0 -1 -9 8 -19 -31 -82
-45 -73 -4 3 -11 -2 -14 -11 -3 -8 -2 -12 4 -9 23 14 8 -24 -20 -50 -17 -16
-28 -35 -25 -43 2 -7 0 -10 -5 -7 -6 3 -22 -2 -38 -13 -38 -26 -115 -62 -134
-62 -9 0 -18 -7 -22 -15 -4 -12 6 -15 64 -15 176 0 376 74 529 196 81 66 164
157 176 194 4 11 9 20 13 20 4 0 7 19 8 43 1 72 11 96 35 90 24 -7 24 -16 3
189 l-6 58 31 -6 c17 -4 31 -3 31 1 0 4 -30 68 -67 143 -37 76 -69 140 -71
144 -2 5 9 13 23 18 27 10 27 11 -56 71 -46 34 -89 63 -96 66 -6 2 -9 11 -6
19 7 18 -1 18 -37 -1 -17 -9 -30 -13 -30 -11 0 3 12 12 26 19 27 14 26 14 -40
32 -36 10 -66 21 -66 26 0 4 34 -4 75 -18 42 -14 83 -22 93 -18 12 5 -9 15
-65 33 -87 27 -98 39 -66 74 21 24 13 31 -22 18 -16 -6 -34 -9 -41 -6 -8 3
-46 -1 -86 -9 -40 -7 -75 -12 -77 -9 -3 2 5 18 17 34 12 16 22 32 22 35 0 3
20 34 45 70 25 36 42 65 38 65 -4 0 -1 6 7 13 34 29 103 107 95 106 -6 0 -71
-41 -145 -91z m23 -263 c77 -10 47 -18 -37 -10 -42 4 -76 12 -76 17 0 5 15 7
33 4 17 -3 54 -8 80 -11z m-443 -38 c0 -2 -17 -19 -37 -38 l-38 -34 34 38 c33
34 41 42 41 34z m319 -71 c-2 -1 -60 -33 -129 -70 -69 -37 -138 -80 -154 -94
-19 -18 -30 -23 -33 -14 -3 8 -19 -1 -45 -25 -22 -21 -44 -37 -49 -36 -5 2
-14 -6 -21 -16 -6 -10 -16 -17 -23 -15 -6 3 -19 -10 -29 -28 -17 -28 -20 -30
-26 -12 -6 17 -9 15 -24 -14 -9 -17 -22 -32 -30 -32 -7 0 -19 -12 -26 -27 -7
-16 -15 -23 -17 -16 -2 6 3 24 11 40 23 42 93 116 98 102 2 -7 33 15 71 51 37
34 67 58 67 53 0 -5 -6 -15 -12 -23 -7 -8 1 -2 18 13 17 15 64 40 105 56 41
16 110 47 154 70 66 34 112 52 94 37z m60 -88 c-26 -52 -34 -61 -24 -28 l7 25
-23 -21 c-34 -31 -91 -64 -109 -63 -8 0 7 11 34 25 38 20 46 28 35 36 -12 8
-12 9 1 6 8 -3 19 -1 25 3 5 5 24 20 40 33 17 14 31 26 33 26 1 0 -7 -19 -19
-42z m71 -18 c39 -20 240 -175 240 -186 0 -9 -21 6 -102 73 -42 35 -103 79
-134 98 -63 38 -66 46 -4 15z m-554 -12 c4 -7 3 -10 -1 -5 -5 4 -18 -1 -29
-10 -21 -18 -21 -18 -2 5 22 26 23 26 32 10z m442 -53 c-6 -14 -13 -23 -15
-21 -5 5 15 46 22 46 3 0 -1 -11 -7 -25z m32 -61 c0 -2 -18 -16 -40 -30 -59
-39 -61 -61 -10 -106 23 -21 38 -38 32 -38 -6 0 -30 18 -53 40 -40 37 -41 41
-27 62 8 13 30 33 49 46 31 22 32 23 11 29 -12 3 -22 9 -22 14 0 4 14 3 30 -2
17 -6 30 -13 30 -15z m440 -99 c0 -5 -5 -3 -10 5 -5 8 -10 20 -10 25 0 6 5 3
10 -5 5 -8 10 -19 10 -25z m-640 10 c0 -2 -10 -9 -22 -15 -22 -11 -22 -10 -4
4 21 17 26 19 26 11z m-253 -38 c-15 -23 -67 -36 -67 -17 0 6 11 15 24 20 13
5 27 14 31 20 3 5 11 8 16 4 6 -4 5 -14 -4 -27z m203 8 c0 -2 -10 -9 -22 -15
-22 -11 -22 -10 -4 4 21 17 26 19 26 11z m697 -17 c-3 -8 -6 -5 -6 6 -1 11 2
17 5 13 3 -3 4 -12 1 -19z m10 -65 c-3 -10 -5 -2 -5 17 0 19 2 27 5 18 2 -10
2 -26 0 -35z m-408 15 l36 -23 -45 -5 c-82 -10 -113 -43 -70 -73 20 -14 20
-15 -12 -20 -38 -5 -53 1 -21 9 20 6 21 8 7 29 -13 21 -13 24 11 39 13 9 42
20 62 24 l38 8 -30 17 c-16 9 -26 16 -21 17 5 0 25 -10 45 -22z m-289 -73
c-13 -14 -28 -25 -34 -25 -6 0 -16 -10 -21 -22 -11 -25 -41 -36 -57 -20 -6 6
-1 8 15 5 20 -4 26 1 36 27 6 18 8 37 5 42 -3 5 3 4 15 -4 18 -11 23 -10 38 5
27 27 29 20 3 -8z m-480 -8 c0 -2 -10 -12 -22 -23 l-23 -19 19 23 c18 21 26
27 26 19z m-40 -103 c0 -3 -13 -10 -30 -15 -16 -6 -38 -25 -49 -42 -18 -27
-21 -29 -21 -11 0 24 23 48 60 63 29 12 40 13 40 5z m387 -26 c-3 -8 -6 -5 -6
6 -1 11 2 17 5 13 3 -3 4 -12 1 -19z m810 -35 c-3 -10 -5 -4 -5 12 0 17 2 24
5 18 2 -7 2 -21 0 -30z m-827 -6 c0 -2 -12 -14 -27 -28 l-28 -24 24 28 c23 25
31 32 31 24z m-65 -57 c-4 -6 -29 -26 -57 -44 -47 -32 -78 -37 -78 -14 0 7 4
7 13 0 14 -12 43 0 34 14 -3 5 2 16 11 24 14 13 15 12 9 -3 -9 -24 3 -21 38 8
33 27 39 30 30 15z m-128 -124 c-3 -7 -15 -16 -26 -19 -12 -3 -19 -2 -16 3 3
4 -2 11 -11 14 -9 4 -14 9 -11 13 4 3 13 0 21 -6 18 -15 36 -7 37 17 0 11 2
12 6 4 3 -7 3 -19 0 -26z"/>
<path d="M1072 2160 c-29 -38 -52 -75 -52 -81 0 -6 -11 -25 -26 -41 -14 -17
-23 -37 -20 -45 3 -8 2 -11 -3 -8 -9 5 -18 -13 -25 -52 -10 -51 -40 -142 -58
-173 -13 -23 -13 -27 -2 -12 9 12 22 22 28 22 6 0 20 15 31 32 10 18 41 54 67
80 44 43 49 52 48 91 -2 52 23 154 51 208 11 23 19 43 17 45 -2 2 -27 -28 -56
-66z"/>
<path d="M792 1521 c-6 -17 -7 -31 -3 -31 8 0 22 52 16 58 -1 2 -7 -11 -13
-27z"/>
<path d="M1550 1031 c0 -25 6 -27 13 -6 4 8 2 17 -3 20 -6 4 -10 -3 -10 -14z"/>
</g>
</svg>
