<svg width="24" height="24" viewBox="0 0 24 24" fill="none" xmlns="http://www.w3.org/2000/svg">
<path d="M19.9945 12.9964C19.9945 17.995 16.4954 20.4944 12.3366 21.944C12.1188 22.0178 11.8823 22.0142 11.6668 21.934C7.49793 20.4944 3.9989 17.995 3.9989 12.9964V5.99837C3.9989 5.73322 4.10423 5.47894 4.29171 5.29146C4.4792 5.10397 4.73348 4.99864 4.99862 4.99864C6.99807 4.99864 9.49738 3.79897 11.2369 2.2794C11.4487 2.09844 11.7181 1.99902 11.9967 1.99902C12.2753 1.99902 12.5447 2.09844 12.7565 2.2794C14.506 3.80897 16.9953 4.99864 18.9948 4.99864C19.2599 4.99864 19.5142 5.10397 19.7017 5.29146C19.8891 5.47894 19.9945 5.73322 19.9945 5.99837V12.9964Z" stroke="#E67E22" stroke-width="1.99945" stroke-linecap="round" stroke-linejoin="round"/>
<path d="M8.9975 11.9967L10.9969 13.9961L14.9958 9.99725" stroke="#E67E22" stroke-width="1.99945" stroke-linecap="round" stroke-linejoin="round"/>
</svg>
