<svg version="1.1" id="Layer_1" xmlns="http://www.w3.org/2000/svg" xmlns:xlink="http://www.w3.org/1999/xlink" x="0px" y="0px"
	 width="100%" viewBox="0 0 750 750" enable-background="new 0 0 750 750" xml:space="preserve">
<path fill="#000000" opacity="1.000000" stroke="none" 
	d="
M1.000000,271.000000 
	C1.000000,181.062302 1.000000,91.124619 1.000000,1.000000 
	C120.688034,1.000000 240.376175,1.000000 360.532166,1.468657 
	C360.967773,11.588301 360.935547,21.239288 360.442749,30.936630 
	C350.424103,30.982985 340.865967,30.982985 330.890411,30.982985 
	C330.890411,41.380161 330.890411,51.141685 330.430237,60.944080 
	C320.402740,60.984947 310.835388,60.984947 300.890411,60.984947 
	C300.890411,81.405647 300.890411,101.154427 300.430237,120.944077 
	C280.345703,120.953392 260.721313,120.921844 241.056000,120.430145 
	C241.015076,110.403801 241.015076,100.837593 241.015076,90.903214 
	C220.600952,90.903214 200.855377,90.903214 181.063416,90.442688 
	C181.017014,80.416931 181.017014,70.851715 181.017014,61.300659 
	C160.683548,61.300659 141.010040,61.300659 120.890427,61.300659 
	C120.890427,71.365891 120.890427,81.134544 120.430267,90.944069 
	C110.407280,90.984940 100.844444,90.984940 91.297882,90.984940 
	C91.297882,111.317284 91.297882,130.987778 91.297882,151.097168 
	C101.357651,151.097168 111.123688,151.097168 120.936310,151.557648 
	C120.982895,171.563782 120.982895,191.109436 120.982895,211.109573 
	C131.358749,211.109573 141.130966,211.109573 150.944061,211.569733 
	C150.984940,221.602402 150.984940,231.174911 150.984940,241.154999 
	C110.672340,241.154999 71.015427,241.154999 30.889887,241.154999 
	C30.889887,251.350281 30.889887,261.126465 30.429779,270.943756 
	C20.313116,270.989899 10.656558,270.994965 1.000000,271.000000 
z"/>
<path fill="#000000" opacity="1.000000" stroke="none" 
	d="
M391.000000,1.000000 
	C510.916931,1.000000 630.833862,1.000000 751.000000,1.000000 
	C751.000000,90.687943 751.000000,180.376129 750.531372,270.532166 
	C740.411743,270.967743 730.760864,270.935486 721.063477,270.442688 
	C721.017029,260.409058 721.017029,250.835907 721.017029,240.854034 
	C680.681335,240.854034 641.024780,240.854034 601.096619,240.854034 
	C601.096619,230.659973 601.096619,220.884888 601.557129,211.063400 
	C611.586731,211.017014 621.155884,211.017014 631.109985,211.017014 
	C631.109985,190.598465 631.109985,170.847839 631.570068,151.056152 
	C641.593872,151.015121 651.157471,151.015121 660.698303,151.015121 
	C660.698303,130.678436 660.698303,111.006424 660.698303,90.889938 
	C650.632263,90.889938 640.864685,90.889938 631.056091,90.429825 
	C631.015076,80.406891 631.015076,70.844086 631.015076,61.298012 
	C610.682556,61.298012 591.012207,61.298012 570.903320,61.298012 
	C570.903320,71.358528 570.903320,81.124306 570.442749,90.936523 
	C550.438721,90.982956 530.895203,90.982956 510.903290,90.982956 
	C510.903290,101.349396 510.903290,111.119835 510.442749,120.936630 
	C490.353760,120.952126 470.725311,120.921280 451.055969,120.430283 
	C451.015076,100.429764 451.015076,80.889412 451.015076,60.902874 
	C440.648438,60.902874 430.879364,60.902874 421.063721,60.442383 
	C421.017120,50.423828 421.017120,40.865761 421.017120,30.890413 
	C410.619781,30.890413 400.858307,30.890413 391.055969,30.430256 
	C391.010040,20.313398 391.005005,10.656699 391.000000,1.000000 
z"/>
<path fill="#000000" opacity="1.000000" stroke="none" 
	d="
M751.000000,481.000000 
	C751.000000,570.937683 751.000000,660.875366 751.000000,751.000000 
	C631.311951,751.000000 511.623840,751.000000 391.467834,750.531372 
	C391.032379,740.411865 391.064728,730.760986 391.557556,721.063599 
	C401.576172,721.017090 411.134308,721.017090 421.109741,721.017090 
	C421.109741,710.619812 421.109741,700.858337 421.569885,691.055969 
	C431.597382,691.015076 441.164703,691.015076 451.109772,691.015076 
	C451.109772,670.594299 451.109772,650.845581 451.569946,631.055908 
	C471.650116,631.042175 491.270142,631.069397 510.936584,631.557129 
	C510.982971,641.586792 510.982971,651.155884 510.982971,661.110168 
	C531.401489,661.110168 551.152161,661.110168 570.943848,661.570312 
	C570.984924,671.593994 570.984924,681.157654 570.984924,690.698242 
	C591.321777,690.698242 610.993958,690.698242 631.109680,690.698242 
	C631.109680,680.632080 631.109680,670.864502 631.569824,661.056030 
	C641.592834,661.015076 651.155701,661.015076 660.702026,661.015076 
	C660.702026,640.682617 660.702026,621.012268 660.702026,600.903259 
	C650.641479,600.903259 640.875671,600.903259 631.063477,600.442749 
	C631.017029,580.436523 631.017029,560.890808 631.017029,540.889954 
	C620.642029,540.889954 610.869568,540.889954 601.056091,540.429810 
	C601.015076,530.397278 601.015076,520.824768 601.015076,510.844849 
	C641.327820,510.844849 680.984741,510.844849 721.109985,510.844849 
	C721.109985,500.650208 721.109985,490.873718 721.570068,481.056213 
	C731.686829,481.010071 741.343384,481.005035 751.000000,481.000000 
z"/>
<path fill="#000000" opacity="1.000000" stroke="none" 
	d="
M361.000000,751.000000 
	C241.083084,751.000000 121.166153,751.000000 1.000000,751.000000 
	C1.000000,661.312073 1.000000,571.623901 1.468657,481.467834 
	C11.588117,481.032410 21.238918,481.064789 30.936310,481.557617 
	C30.982899,491.591187 30.982899,501.164276 30.982899,511.145874 
	C71.318626,511.145874 110.975220,511.145874 150.902847,511.145874 
	C150.902847,521.339722 150.902847,531.114685 150.442352,540.936279 
	C140.413956,540.982910 130.846039,540.982910 120.903198,540.982910 
	C120.903198,561.395325 120.903198,581.142761 120.442673,600.936523 
	C110.417831,600.982971 100.853531,600.982971 91.296906,600.982971 
	C91.296906,621.312256 91.296906,640.984070 91.296906,661.096680 
	C101.357002,661.096680 111.123520,661.096680 120.936493,661.557251 
	C120.982956,671.582947 120.982956,681.148193 120.982956,690.699463 
	C141.316345,690.699463 160.989822,690.699463 181.110214,690.699463 
	C181.110214,680.634338 181.110214,670.865784 181.570312,661.056152 
	C201.570663,661.015076 221.110886,661.015076 241.097015,661.015076 
	C241.097015,650.648926 241.097015,640.879578 241.557510,631.063660 
	C261.646362,631.047974 281.274719,631.078857 300.944000,631.569824 
	C300.984924,651.570374 300.984924,671.110718 300.984924,691.096680 
	C311.351807,691.096680 321.120941,691.096680 330.936523,691.557251 
	C330.982971,701.575867 330.982971,711.133972 330.982971,721.110046 
	C341.379425,721.110046 351.141144,721.110046 360.943848,721.570190 
	C360.989929,731.686829 360.994965,741.343445 361.000000,751.000000 
z"/>
<path fill="#000000" opacity="1.000000" stroke="none" 
	d="
M751.000000,301.000000 
	C751.000000,350.687561 751.000000,400.375122 750.531372,450.531311 
	C740.411865,450.967621 730.760986,450.935242 721.063599,450.442383 
	C721.017090,440.423767 721.017090,430.865631 721.017090,420.890350 
	C710.619751,420.890350 700.858215,420.890350 691.055908,420.430176 
	C691.015015,410.414062 691.015015,400.858063 691.015015,390.889801 
	C680.617065,390.889801 670.857117,390.889801 661.056152,390.429688 
	C661.046692,380.345337 661.078247,370.721130 661.569885,361.056000 
	C671.585938,361.015076 681.141907,361.015076 691.109680,361.015076 
	C691.109680,350.616974 691.109680,340.856995 691.569824,331.056030 
	C701.585938,331.015106 711.141907,331.015106 721.109680,331.015106 
	C721.109680,320.616974 721.109680,310.856995 721.569824,301.056030 
	C731.686646,301.010071 741.343323,301.005035 751.000000,301.000000 
z"/>
<path fill="#000000" opacity="1.000000" stroke="none" 
	d="
M1.000000,451.000000 
	C1.000000,401.312439 1.000000,351.624878 1.468657,301.468658 
	C11.588112,301.032410 21.238911,301.064789 30.936302,301.557617 
	C30.982897,311.574493 30.982897,321.130920 30.982897,331.096802 
	C41.372574,331.096802 51.131355,331.096802 60.936554,331.557312 
	C60.982964,341.574280 60.982964,351.130707 60.982964,361.096832 
	C71.372520,361.096832 81.131348,361.096832 90.936569,361.557343 
	C90.956276,371.641815 90.929573,381.265747 90.442383,390.936310 
	C80.425545,390.982910 70.869186,390.982910 60.902863,390.982910 
	C60.902863,401.371796 60.902863,411.130737 60.442368,420.936279 
	C50.423862,420.982880 40.865852,420.982880 30.889856,420.982880 
	C30.889856,431.379974 30.889856,441.141327 30.429749,450.943787 
	C20.313093,450.989899 10.656547,450.994934 1.000000,451.000000 
z"/>
<path fill="#FF4400" opacity="1.000000" stroke="none" 
	d="
M361.468689,751.000000 
	C360.994965,741.343445 360.989929,731.686829 360.991791,721.517822 
	C360.998688,721.005432 361.096985,720.903137 361.557678,720.945679 
	C371.646545,720.959900 381.274689,720.931641 390.952026,720.954407 
	C391.001221,721.005493 391.097076,721.110168 391.097076,721.110168 
	C391.064728,730.760986 391.032379,740.411865 391.000000,750.531372 
	C381.312439,751.000000 371.624878,751.000000 361.468689,751.000000 
z"/>
<path fill="#FF4400" opacity="1.000000" stroke="none" 
	d="
M721.110168,450.902893 
	C730.760986,450.935242 740.411865,450.967621 750.531372,451.000000 
	C751.000000,460.687561 751.000000,470.375122 751.000000,480.531342 
	C741.343384,481.005035 731.686829,481.010071 721.517822,481.008362 
	C721.005432,481.001556 720.903259,480.903290 720.945740,480.442627 
	C720.959961,470.353607 720.931763,460.725250 720.954529,451.047729 
	C721.005554,450.998566 721.110168,450.902893 721.110168,450.902893 
z"/>
<path fill="#FF4400" opacity="1.000000" stroke="none" 
	d="
M390.531342,1.000000 
	C391.005005,10.656699 391.010040,20.313398 391.008240,30.482403 
	C391.001434,30.994705 390.903534,31.096638 390.442780,31.054173 
	C380.353546,31.039976 370.725098,31.068243 361.047668,31.045540 
	C360.998688,30.994574 360.903290,30.890274 360.903290,30.890274 
	C360.935547,21.239288 360.967773,11.588301 361.000000,1.468657 
	C370.687561,1.000000 380.375122,1.000000 390.531342,1.000000 
z"/>
<path fill="#FF4400" opacity="1.000000" stroke="none" 
	d="
M30.889708,301.097168 
	C21.238911,301.064789 11.588112,301.032410 1.468657,301.000000 
	C1.000000,291.312439 1.000000,281.624878 1.000000,271.468658 
	C10.656558,270.994965 20.313116,270.989899 30.482014,270.991516 
	C30.994356,270.998169 31.096504,271.096191 31.053753,271.556885 
	C31.039433,281.646240 31.067863,291.274902 31.045250,300.952606 
	C30.994207,301.001648 30.889708,301.097168 30.889708,301.097168 
z"/>
<path fill="#FF4400" opacity="1.000000" stroke="none" 
	d="
M751.000000,300.531342 
	C741.343323,301.005035 731.686646,301.010071 721.517700,301.008392 
	C721.005493,301.001678 720.903687,300.903809 720.946411,300.443146 
	C720.960754,290.353790 720.932373,280.725098 720.954834,271.047455 
	C721.005737,270.998505 721.109924,270.903229 721.109924,270.903229 
	C730.760864,270.935486 740.411743,270.967743 750.531372,271.000000 
	C751.000000,280.687561 751.000000,290.375122 751.000000,300.531342 
z"/>
<path fill="#FF4400" opacity="1.000000" stroke="none" 
	d="
M1.000000,451.468658 
	C10.656547,450.994934 20.313093,450.989899 30.482155,450.991699 
	C30.994669,450.998566 31.097107,451.096985 31.054661,451.557739 
	C31.040470,461.646606 31.068724,471.274719 31.045765,480.952087 
	C30.994553,481.001282 30.889721,481.097168 30.889721,481.097168 
	C21.238918,481.064789 11.588117,481.032410 1.468657,481.000000 
	C1.000000,471.312439 1.000000,461.624878 1.000000,451.468658 
z"/>
<path fill="#FF4400" opacity="1.000000" stroke="none" 
	d="
M30.942122,270.950409 
	C30.889887,261.126465 30.889887,251.350281 30.889887,241.154999 
	C71.015427,241.154999 110.672340,241.154999 150.984940,241.154999 
	C150.984940,231.174911 150.984940,221.602402 150.991791,211.517548 
	C150.998627,211.005203 151.096695,210.903305 151.557419,210.945862 
	C161.696030,210.975723 171.373901,210.963028 181.028778,211.421631 
	C181.005753,231.489960 181.005753,251.087021 181.005753,271.001343 
	C178.480835,271.001343 176.509171,271.000214 174.537491,271.001526 
	C126.723831,271.032928 78.910164,271.064575 31.096504,271.096191 
	C31.096504,271.096191 30.994356,270.998169 30.942122,270.950409 
z"/>
<path fill="#FF4400" opacity="1.000000" stroke="none" 
	d="
M120.889725,151.097168 
	C111.123688,151.097168 101.357651,151.097168 91.297882,151.097168 
	C91.297882,130.987778 91.297882,111.317284 91.297882,90.984940 
	C100.844444,90.984940 110.407280,90.984940 120.482605,90.991951 
	C120.995087,90.998962 121.097321,91.097321 121.055031,91.558029 
	C121.040497,111.647102 121.068253,131.275467 121.045059,150.952820 
	C120.994095,151.001801 120.889725,151.097168 120.889725,151.097168 
z"/>
<path fill="#FF4400" opacity="1.000000" stroke="none" 
	d="
M181.109818,90.903214 
	C200.855377,90.903214 220.600952,90.903214 241.015076,90.903214 
	C241.015076,100.837593 241.015076,110.403801 241.008316,120.482300 
	C241.001556,120.994598 240.903595,121.096474 240.442841,121.053787 
	C220.303452,121.023338 200.624817,121.035561 180.969757,120.576653 
	C180.963318,110.435974 180.933304,100.766426 180.954315,91.047821 
	C181.005341,90.998756 181.109818,90.903214 181.109818,90.903214 
z"/>
<path fill="#FF4400" opacity="1.000000" stroke="none" 
	d="
M241.049240,120.942444 
	C260.721313,120.921844 280.345703,120.953392 300.482666,120.992043 
	C300.995209,120.999146 301.097565,121.097694 301.055359,121.558380 
	C301.013123,131.607346 301.013123,141.195633 301.013123,151.049088 
	C280.550415,151.049088 260.748962,151.049088 240.970779,150.577866 
	C240.963898,140.436584 240.933746,130.766525 240.903595,121.096474 
	C240.903595,121.096474 241.001556,120.994598 241.049240,120.942444 
z"/>
<path fill="#FF4400" opacity="1.000000" stroke="none" 
	d="
M300.942810,120.951172 
	C300.890411,101.154427 300.890411,81.405647 300.890411,60.984947 
	C310.835388,60.984947 320.402740,60.984947 330.482391,60.991783 
	C330.994690,60.998623 331.096497,61.096611 331.054077,61.557358 
	C331.024292,81.696136 331.036957,101.374176 330.578308,121.029869 
	C320.437195,121.037582 310.767395,121.067635 301.097565,121.097687 
	C301.097565,121.097694 300.995209,120.999146 300.942810,120.951172 
z"/>
<path fill="#FF4400" opacity="1.000000" stroke="none" 
	d="
M150.950897,211.057388 
	C141.130966,211.109573 131.358749,211.109573 120.982895,211.109573 
	C120.982895,191.109436 120.982895,171.563782 120.936310,151.557648 
	C120.889725,151.097168 120.994095,151.001801 121.505745,150.995590 
	C131.695724,150.976562 141.374054,150.963745 151.029373,151.422165 
	C151.036469,171.563370 151.066574,191.233337 151.096680,210.903305 
	C151.096695,210.903305 150.998627,211.005203 150.950897,211.057388 
z"/>
<path fill="#FF4400" opacity="1.000000" stroke="none" 
	d="
M120.942757,90.951080 
	C120.890427,81.134544 120.890427,71.365891 120.890427,61.300659 
	C141.010040,61.300659 160.683548,61.300659 181.017014,61.300659 
	C181.017014,70.851715 181.017014,80.416931 181.063416,90.442688 
	C181.109818,90.903214 181.005341,90.998756 180.493652,91.005295 
	C160.353745,91.040337 140.725540,91.068825 121.097321,91.097321 
	C121.097321,91.097321 120.995087,90.998962 120.942757,90.951080 
z"/>
<path fill="#FF4400" opacity="1.000000" stroke="none" 
	d="
M330.942566,60.950920 
	C330.890411,51.141685 330.890411,41.380161 330.890411,30.982985 
	C340.865967,30.982985 350.424103,30.982985 360.442749,30.936630 
	C360.903290,30.890274 360.998688,30.994574 361.005188,31.506222 
	C361.025330,41.694881 361.039001,51.371895 360.580933,61.027451 
	C350.438324,61.036198 340.767426,61.066406 331.096497,61.096611 
	C331.096497,61.096611 330.994690,60.998623 330.942566,60.950920 
z"/>
<path fill="#FF4400" opacity="1.000000" stroke="none" 
	d="
M601.096619,211.109787 
	C601.096619,220.884888 601.096619,230.659973 601.096619,240.854034 
	C641.024780,240.854034 680.681335,240.854034 721.017029,240.854034 
	C721.017029,250.835907 721.017029,260.409058 721.063477,270.442688 
	C721.109924,270.903229 721.005737,270.998505 720.494141,271.004700 
	C670.403748,271.010864 620.825012,271.010864 570.947937,271.010864 
	C570.947937,250.563339 570.947937,230.756989 571.419556,210.971939 
	C581.561646,210.963043 591.232117,210.932846 600.951782,210.953827 
	C601.000977,211.004990 601.096619,211.109787 601.096619,211.109787 
z"/>
<path fill="#FF4400" opacity="1.000000" stroke="none" 
	d="
M421.110291,60.902874 
	C430.879364,60.902874 440.648438,60.902874 451.015076,60.902874 
	C451.015076,80.889412 451.015076,100.429764 451.008057,120.482635 
	C451.001038,120.995155 450.902679,121.097466 450.441956,121.055115 
	C440.304443,121.025970 430.627594,121.039192 420.972290,120.580750 
	C420.963623,100.438431 420.933411,80.767784 420.954346,61.047897 
	C421.005493,60.998665 421.110291,60.902874 421.110291,60.902874 
z"/>
<path fill="#FF4400" opacity="1.000000" stroke="none" 
	d="
M570.903320,90.890091 
	C570.903320,81.124306 570.903320,71.358528 570.903320,61.298012 
	C591.012207,61.298012 610.682556,61.298012 631.015076,61.298012 
	C631.015076,70.844086 631.015076,80.406891 631.008179,90.482269 
	C631.001282,90.994827 630.903015,91.097427 630.442383,91.054955 
	C610.353394,91.040550 590.725098,91.068619 571.047729,91.045654 
	C570.998718,90.994629 570.903320,90.890091 570.903320,90.890091 
z"/>
<path fill="#FF4400" opacity="1.000000" stroke="none" 
	d="
M510.903290,120.890282 
	C510.903290,111.119835 510.903290,101.349396 510.903290,90.982956 
	C530.895203,90.982956 550.438721,90.982956 570.442749,90.936523 
	C570.903320,90.890091 570.998718,90.994629 571.005127,91.506310 
	C571.025085,101.695053 571.038635,111.372108 570.580505,121.027824 
	C550.438110,121.036438 530.767273,121.066406 511.047546,121.045441 
	C510.998596,120.994514 510.903290,120.890282 510.903290,120.890282 
z"/>
<path fill="#FF4400" opacity="1.000000" stroke="none" 
	d="
M631.049194,90.942383 
	C640.864685,90.889938 650.632263,90.889938 660.698303,90.889938 
	C660.698303,111.006424 660.698303,130.678436 660.698303,151.015121 
	C651.157471,151.015121 641.593872,151.015121 631.517944,151.008362 
	C631.005615,151.001587 630.903625,150.903351 630.946167,150.442627 
	C630.960205,130.353745 630.931580,110.725586 630.903015,91.097427 
	C630.903015,91.097427 631.001282,90.994827 631.049194,90.942383 
z"/>
<path fill="#FF4400" opacity="1.000000" stroke="none" 
	d="
M451.048950,120.942795 
	C470.725311,120.921280 490.353760,120.952126 510.442749,120.936630 
	C510.903290,120.890282 510.998596,120.994514 511.004883,121.506104 
	C511.023987,131.695694 511.036835,141.373688 510.578400,151.028900 
	C490.517456,151.006104 470.927826,151.006104 450.902679,151.006104 
	C450.902679,140.677597 450.902679,130.887527 450.902679,121.097466 
	C450.902679,121.097466 451.001038,120.995155 451.048950,120.942795 
z"/>
<path fill="#FF4400" opacity="1.000000" stroke="none" 
	d="
M631.057800,151.049393 
	C631.109985,170.847839 631.109985,190.598465 631.109985,211.017014 
	C621.155884,211.017014 611.586731,211.017014 601.557129,211.063400 
	C601.096619,211.109787 601.000977,211.004990 600.994080,210.493195 
	C600.974243,190.304413 600.961304,170.627441 601.420044,150.972504 
	C611.562256,150.964142 621.232971,150.933746 630.903625,150.903351 
	C630.903625,150.903351 631.005615,151.001587 631.057800,151.049393 
z"/>
<path fill="#FF4400" opacity="1.000000" stroke="none" 
	d="
M391.049133,30.942558 
	C400.858307,30.890413 410.619781,30.890413 421.017120,30.890413 
	C421.017120,40.865761 421.017120,50.423828 421.063721,60.442383 
	C421.110291,60.902874 421.005493,60.998665 420.493713,61.005222 
	C410.303986,61.024395 400.626068,61.037010 390.970886,60.578346 
	C390.963593,50.436920 390.933563,40.766781 390.903534,31.096638 
	C390.903534,31.096638 391.001434,30.994705 391.049133,30.942558 
z"/>
<path fill="#FF4400" opacity="1.000000" stroke="none" 
	d="
M721.057739,481.049408 
	C721.109985,490.873718 721.109985,500.650208 721.109985,510.844849 
	C680.984741,510.844849 641.327820,510.844849 601.015076,510.844849 
	C601.015076,520.824768 601.015076,530.397278 601.008301,540.482178 
	C601.001465,540.994629 600.903076,541.096924 600.442383,541.054321 
	C590.304504,541.025024 580.627380,541.038208 570.971924,540.579956 
	C570.993530,520.511353 570.993530,500.914154 570.993530,481.000000 
	C573.523193,481.000000 575.492310,481.001160 577.461487,480.999847 
	C625.275391,480.967834 673.089355,480.935516 720.903259,480.903290 
	C720.903259,480.903290 721.005432,481.001556 721.057739,481.049408 
z"/>
<path fill="#FF4400" opacity="1.000000" stroke="none" 
	d="
M631.109863,600.903259 
	C640.875671,600.903259 650.641479,600.903259 660.702026,600.903259 
	C660.702026,621.012268 660.702026,640.682617 660.702026,661.015076 
	C651.155701,661.015076 641.592834,661.015076 631.517456,661.008118 
	C631.005005,661.001160 630.902832,660.902893 630.945190,660.442200 
	C630.959534,640.353210 630.931641,620.724854 630.954590,601.047546 
	C631.005554,600.998535 631.109863,600.903259 631.109863,600.903259 
z"/>
<path fill="#FF4400" opacity="1.000000" stroke="none" 
	d="
M510.890167,631.096558 
	C491.270142,631.069397 471.650116,631.042175 451.517822,631.008301 
	C451.005524,631.001587 450.903687,630.903809 450.946411,630.442993 
	C450.989136,620.393982 450.989136,610.805664 450.989136,600.947632 
	C471.447876,600.947632 491.248474,600.947632 511.027466,601.419312 
	C511.036102,611.561768 511.066284,621.232544 511.045502,630.952271 
	C510.994507,631.001221 510.890167,631.096558 510.890167,631.096558 
z"/>
<path fill="#FF4400" opacity="1.000000" stroke="none" 
	d="
M601.049316,540.942261 
	C610.869568,540.889954 620.642029,540.889954 631.017029,540.889954 
	C631.017029,560.890808 631.017029,580.436523 631.063477,600.442749 
	C631.109863,600.903259 631.005554,600.998535 630.493896,601.005005 
	C620.302734,601.022522 610.623230,601.033630 600.968506,600.573853 
	C600.963196,580.434265 600.933105,560.765625 600.903076,541.096924 
	C600.903076,541.096924 601.001465,540.994629 601.049316,540.942261 
z"/>
<path fill="#FF4400" opacity="1.000000" stroke="none" 
	d="
M631.057373,661.049072 
	C631.109680,670.864502 631.109680,680.632080 631.109680,690.698242 
	C610.993958,690.698242 591.321777,690.698242 570.984924,690.698242 
	C570.984924,681.157654 570.984924,671.593994 570.991577,661.518005 
	C570.998291,661.005615 571.096436,660.903564 571.557190,660.946167 
	C591.646240,660.960083 611.274536,660.931519 630.902832,660.902893 
	C630.902832,660.902893 631.005005,661.001160 631.057373,661.049072 
z"/>
<path fill="#FF4400" opacity="1.000000" stroke="none" 
	d="
M570.950562,661.057861 
	C551.152161,661.110168 531.401489,661.110168 510.982971,661.110168 
	C510.982971,651.155884 510.982971,641.586792 510.936584,631.557129 
	C510.890167,631.096558 510.994507,631.001221 511.506256,630.994751 
	C521.678650,630.936646 531.339294,630.885071 541.330627,630.904968 
	C542.107361,630.928772 542.553345,630.880981 543.463013,630.906494 
	C552.968872,630.970398 562.011230,630.961182 571.029785,631.423096 
	C571.036194,641.564026 571.066284,651.233826 571.096436,660.903564 
	C571.096436,660.903564 570.998291,661.005615 570.950562,661.057861 
z"/>
<path fill="#FF4400" opacity="1.000000" stroke="none" 
	d="
M451.057648,631.049194 
	C451.109772,650.845581 451.109772,670.594299 451.109772,691.015076 
	C441.164703,691.015076 431.597382,691.015076 421.517639,691.008301 
	C421.005219,691.001465 420.903198,690.903381 420.945740,690.442627 
	C420.976562,670.303101 420.964813,650.624268 421.424133,630.969849 
	C431.564667,630.963989 441.234192,630.933899 450.903687,630.903809 
	C450.903687,630.903809 451.005524,631.001587 451.057648,631.049194 
z"/>
<path fill="#FF4400" opacity="1.000000" stroke="none" 
	d="
M421.057495,691.049194 
	C421.109741,700.858337 421.109741,710.619812 421.109741,721.017090 
	C411.134308,721.017090 401.576172,721.017090 391.557556,721.063599 
	C391.097076,721.110168 391.001221,721.005493 390.994690,720.493713 
	C390.973114,710.306641 390.958008,700.631348 391.415161,690.975159 
	C401.559357,690.963928 411.231293,690.933655 420.903198,690.903381 
	C420.903198,690.903381 421.005219,691.001465 421.057495,691.049194 
z"/>
<path fill="#FF4400" opacity="1.000000" stroke="none" 
	d="
M150.902847,540.889709 
	C150.902847,531.114685 150.902847,521.339722 150.902847,511.145874 
	C110.975220,511.145874 71.318626,511.145874 30.982899,511.145874 
	C30.982899,501.164276 30.982899,491.591187 30.936310,481.557617 
	C30.889721,481.097168 30.994553,481.001282 31.506414,480.994537 
	C81.597153,480.987793 131.176041,480.987793 181.051849,480.987793 
	C181.051849,501.436615 181.051849,521.243103 180.580276,541.027405 
	C170.437973,541.035461 160.767258,541.065796 151.047440,541.045166 
	C150.998352,540.994202 150.902847,540.889709 150.902847,540.889709 
z"/>
<path fill="#FF4400" opacity="1.000000" stroke="none" 
	d="
M330.890076,691.096680 
	C321.120941,691.096680 311.351807,691.096680 300.984924,691.096680 
	C300.984924,671.110718 300.984924,651.570374 300.991821,631.517639 
	C300.998718,631.005310 301.096893,630.903320 301.557617,630.945801 
	C311.694641,630.974060 321.370972,630.959900 331.026733,631.417603 
	C331.036224,651.560913 331.066223,671.232300 331.045288,690.952515 
	C330.994385,691.001465 330.890076,691.096680 330.890076,691.096680 
z"/>
<path fill="#FF4400" opacity="1.000000" stroke="none" 
	d="
M241.097015,631.110229 
	C241.097015,640.879578 241.097015,650.648926 241.097015,661.015076 
	C221.110886,661.015076 201.570663,661.015076 181.517960,661.008301 
	C181.005493,661.001587 180.903320,660.903381 180.945816,660.442627 
	C180.974945,650.304626 180.961578,640.627441 181.419800,630.972290 
	C201.561813,630.963928 221.232254,630.933533 240.951950,630.954224 
	C241.001205,631.005371 241.097015,631.110229 241.097015,631.110229 
z"/>
<path fill="#FF4400" opacity="1.000000" stroke="none" 
	d="
M120.903198,600.890137 
	C120.903198,581.142761 120.903198,561.395325 120.903198,540.982910 
	C130.846039,540.982910 140.413956,540.982910 150.442352,540.936279 
	C150.902847,540.889709 150.998352,540.994202 151.004547,541.505859 
	C151.025513,561.693909 151.040283,581.370239 150.583069,601.026306 
	C140.439682,601.036133 130.768295,601.066284 121.047798,601.045532 
	C120.998695,600.994568 120.903198,600.890137 120.903198,600.890137 
z"/>
<path fill="#FF4400" opacity="1.000000" stroke="none" 
	d="
M300.950897,631.057495 
	C281.274719,631.078857 261.646362,631.047974 241.557510,631.063660 
	C241.097015,631.110229 241.001205,631.005371 240.994507,630.493530 
	C240.976059,620.303101 240.964310,610.624390 241.423676,600.969238 
	C261.483612,600.992676 281.072418,600.992676 301.096893,600.992676 
	C301.096893,611.323853 301.096893,621.113586 301.096893,630.903320 
	C301.096893,630.903320 300.998718,631.005310 300.950897,631.057495 
z"/>
<path fill="#FF4400" opacity="1.000000" stroke="none" 
	d="
M120.890038,661.096680 
	C111.123520,661.096680 101.357002,661.096680 91.296906,661.096680 
	C91.296906,640.984070 91.296906,621.312256 91.296906,600.982971 
	C100.853531,600.982971 110.417831,600.982971 120.442673,600.936523 
	C120.903198,600.890137 120.998695,600.994568 121.005203,601.506226 
	C121.040016,621.646301 121.068329,641.274780 121.045578,660.952271 
	C120.994514,661.001282 120.890038,661.096680 120.890038,661.096680 
z"/>
<path fill="#FF4400" opacity="1.000000" stroke="none" 
	d="
M181.057861,661.049377 
	C181.110214,670.865784 181.110214,680.634338 181.110214,690.699463 
	C160.989822,690.699463 141.316345,690.699463 120.982956,690.699463 
	C120.982956,681.148193 120.982956,671.582947 120.936493,661.557251 
	C120.890038,661.096680 120.994514,661.001282 121.506241,660.994751 
	C141.646423,660.959961 161.274872,660.931641 180.903320,660.903381 
	C180.903320,660.903381 181.005493,661.001587 181.057861,661.049377 
z"/>
<path fill="#FF4400" opacity="1.000000" stroke="none" 
	d="
M360.950745,721.057739 
	C351.141144,721.110046 341.379425,721.110046 330.982971,721.110046 
	C330.982971,711.133972 330.982971,701.575867 330.936523,691.557251 
	C330.890076,691.096680 330.994385,691.001465 331.505981,690.995117 
	C341.697113,690.977478 351.376587,690.966248 361.031372,691.425903 
	C361.036743,701.565613 361.066864,711.234375 361.096985,720.903137 
	C361.096985,720.903137 360.998688,721.005432 360.950745,721.057739 
z"/>
<path fill="#FF4400" opacity="1.000000" stroke="none" 
	d="
M721.057617,301.049316 
	C721.109680,310.856995 721.109680,320.616974 721.109680,331.015106 
	C711.141907,331.015106 701.585938,331.015106 691.517578,331.008240 
	C691.005127,331.001343 690.903015,330.903107 690.945435,330.442444 
	C690.987915,320.413696 690.987915,310.845642 690.987915,300.903809 
	C701.360352,300.903809 711.132019,300.903809 720.903687,300.903809 
	C720.903687,300.903809 721.005493,301.001678 721.057617,301.049316 
z"/>
<path fill="#FF4400" opacity="1.000000" stroke="none" 
	d="
M691.057373,331.049164 
	C691.109680,340.856995 691.109680,350.616974 691.109680,361.015076 
	C681.141907,361.015076 671.585938,361.015076 661.517700,361.008240 
	C661.005371,361.001404 660.903442,360.903290 660.945862,360.442566 
	C660.975647,350.303925 660.962952,340.625977 661.421631,330.970703 
	C671.562927,330.963257 681.232971,330.933167 690.903015,330.903107 
	C690.903015,330.903107 691.005127,331.001343 691.057373,331.049164 
z"/>
<path fill="#FF4400" opacity="1.000000" stroke="none" 
	d="
M661.057617,361.049164 
	C661.078247,370.721130 661.046692,380.345337 661.008301,390.482056 
	C661.001526,390.994568 660.903259,391.096954 660.442505,391.054321 
	C650.302979,391.023438 640.624146,391.035156 630.969360,390.575806 
	C630.978333,380.386688 630.963196,370.668579 631.419678,360.972229 
	C641.562012,360.963745 651.232727,360.933502 660.903442,360.903290 
	C660.903442,360.903290 661.005371,361.001404 661.057617,361.049164 
z"/>
<path fill="#FF4400" opacity="1.000000" stroke="none" 
	d="
M661.049316,390.942200 
	C670.857117,390.889801 680.617065,390.889801 691.015015,390.889801 
	C691.015015,400.858063 691.015015,410.414062 691.007996,420.482605 
	C691.000977,420.995178 690.902649,421.097534 690.441895,421.055237 
	C680.305115,421.026886 670.629028,421.040771 660.973511,420.582733 
	C660.963684,410.439514 660.933472,400.768219 660.903259,391.096954 
	C660.903259,391.096954 661.001526,390.994568 661.049316,390.942200 
z"/>
<path fill="#FF4400" opacity="1.000000" stroke="none" 
	d="
M691.048828,420.942749 
	C700.858215,420.890350 710.619751,420.890350 721.017090,420.890350 
	C721.017090,430.865631 721.017090,440.423767 721.063599,450.442383 
	C721.110168,450.902893 721.005554,450.998566 720.493774,451.005157 
	C710.413757,451.011749 700.845398,451.011749 690.902649,451.011749 
	C690.902649,440.640808 690.902649,430.869171 690.902649,421.097534 
	C690.902649,421.097534 691.000977,420.995178 691.048828,420.942749 
z"/>
<path fill="#FF4400" opacity="1.000000" stroke="none" 
	d="
M60.890141,331.096802 
	C51.131355,331.096802 41.372574,331.096802 30.982897,331.096802 
	C30.982897,321.130920 30.982897,311.574493 30.936302,301.557617 
	C30.889708,301.097168 30.994207,301.001648 31.505924,300.995331 
	C41.585869,300.989014 51.154099,300.989014 61.096321,300.989014 
	C61.096321,311.360168 61.096321,321.131836 61.045380,330.952515 
	C60.994442,331.001465 60.890141,331.096802 60.890141,331.096802 
z"/>
<path fill="#FF4400" opacity="1.000000" stroke="none" 
	d="
M90.890167,361.096832 
	C81.131348,361.096832 71.372520,361.096832 60.982964,361.096832 
	C60.982964,351.130707 60.982964,341.574280 60.936554,331.557312 
	C60.890141,331.096802 60.994442,331.001465 61.506050,330.995239 
	C71.694199,330.974609 81.370743,330.960175 91.026550,331.417664 
	C91.036057,341.560822 91.066299,351.232117 91.045547,360.952393 
	C90.994545,361.001404 90.890167,361.096832 90.890167,361.096832 
z"/>
<path fill="#FF4400" opacity="1.000000" stroke="none" 
	d="
M90.902878,390.889709 
	C90.929573,381.265747 90.956276,371.641815 90.936569,361.557343 
	C90.890167,361.096832 90.994545,361.001404 91.506226,360.994873 
	C101.696709,360.976471 111.375519,360.964569 121.030502,361.423798 
	C121.021629,371.613251 121.036591,381.331573 120.580002,391.027985 
	C110.438004,391.036285 100.767563,391.066528 91.047897,391.045654 
	C90.998665,390.994507 90.902870,390.889709 90.902878,390.889709 
z"/>
<path fill="#FF4400" opacity="1.000000" stroke="none" 
	d="
M60.902863,420.889709 
	C60.902863,411.130737 60.902863,401.371796 60.902863,390.982910 
	C70.869186,390.982910 80.425545,390.982910 90.442383,390.936310 
	C90.902870,390.889709 90.998665,390.994507 91.005219,391.506287 
	C91.024498,401.695892 91.037216,411.373718 90.578636,421.028687 
	C80.437065,421.035950 70.766785,421.066071 61.047424,421.045227 
	C60.998344,420.994202 60.902863,420.889709 60.902863,420.889709 
z"/>
<path fill="#FF4400" opacity="1.000000" stroke="none" 
	d="
M30.942263,450.950623 
	C30.889856,441.141327 30.889856,431.379974 30.889856,420.982880 
	C40.865852,420.982880 50.423862,420.982880 60.442368,420.936279 
	C60.902863,420.889709 60.998344,420.994202 61.004673,421.505890 
	C61.011002,431.585876 61.011002,441.154205 61.011002,451.096985 
	C50.640415,451.096985 40.868759,451.096985 31.097107,451.096985 
	C31.097107,451.096985 30.994669,450.998566 30.942263,450.950623 
z"/>
<path fill="#FFFEFE" opacity="1.000000" stroke="none" 
	d="
M361.557678,720.945679 
	C361.066864,711.234375 361.036743,701.565613 361.005768,691.450562 
	C361.004913,691.004272 360.950043,691.049316 361.421448,691.027588 
	C371.611908,691.020264 381.330994,691.034790 391.022095,691.027344 
	C390.994080,691.005432 390.942902,690.956055 390.942902,690.956055 
	C390.958008,700.631348 390.973114,710.306641 390.945496,720.442627 
	C381.274689,720.931641 371.646545,720.959900 361.557678,720.945679 
z"/>
<path fill="#FEFFFF" opacity="1.000000" stroke="none" 
	d="
M690.441895,421.055237 
	C690.902649,430.869171 690.902649,440.640808 690.902649,451.011749 
	C700.845398,451.011749 710.413757,451.011749 720.442749,451.054321 
	C720.931763,460.725250 720.959961,470.353607 720.945740,480.442627 
	C673.089355,480.935516 625.275391,480.967834 577.461487,480.999847 
	C575.492310,481.001160 573.523193,481.000000 570.993530,481.000000 
	C570.993530,500.914154 570.993530,520.511353 570.997681,540.555542 
	C571.001770,541.002625 571.049438,540.950134 570.578064,540.971802 
	C560.511414,540.993469 550.916077,540.993469 540.883667,540.993469 
	C540.883667,520.739441 540.883667,501.023560 540.883667,480.855835 
	C530.716248,480.855835 520.987610,480.855835 510.815063,480.855835 
	C510.815063,470.674286 510.815063,460.945068 510.815063,450.950348 
	C500.554199,450.950348 490.752258,450.950348 480.975159,450.975159 
	C481.000000,451.000000 481.049652,451.049713 481.027954,450.578308 
	C481.006256,440.505402 481.006256,430.903931 481.006256,420.843628 
	C491.293854,420.843628 501.028992,420.843628 511.215912,420.843628 
	C511.215912,410.645630 511.215912,400.910156 511.215912,390.725464 
	C521.415710,390.725464 531.151367,390.725464 540.775269,390.725464 
	C540.775269,380.644806 540.775269,371.035217 540.775269,360.960571 
	C530.828186,360.960571 521.094421,360.960571 510.901978,360.960571 
	C510.901978,350.766266 510.901978,341.031067 510.901978,330.842438 
	C500.705688,330.842438 490.970551,330.842438 481.049683,330.842438 
	C481.049683,320.566376 481.049683,310.758392 481.024780,300.975098 
	C480.999847,300.999847 480.950378,301.049683 481.421783,301.027954 
	C491.488495,301.006226 501.083771,301.006226 511.129944,301.006226 
	C511.129944,290.731171 511.129944,281.002594 511.129944,270.828979 
	C521.311768,270.828979 531.040466,270.828979 541.198120,270.828979 
	C541.198120,250.655579 541.198120,230.939728 541.198120,211.049759 
	C551.445435,211.049759 561.247559,211.049759 571.024536,211.024658 
	C570.999390,210.999573 570.947937,210.950623 570.947937,210.950623 
	C570.947937,230.756989 570.947937,250.563339 570.947937,271.010864 
	C620.825012,271.010864 670.403748,271.010864 720.443237,271.053650 
	C720.932373,280.725098 720.960754,290.353790 720.946411,300.443146 
	C711.132019,300.903809 701.360352,300.903809 690.987915,300.903809 
	C690.987915,310.845642 690.987915,320.413696 690.945435,330.442444 
	C681.232971,330.933167 671.562927,330.963257 661.446106,330.996429 
	C660.999329,330.999512 661.049744,331.049622 661.028076,330.578247 
	C661.006348,320.510376 661.006348,310.913879 661.006348,301.264374 
	C620.747803,301.264374 581.048889,301.264374 541.287720,301.264374 
	C541.287720,311.254730 541.287720,320.976868 541.287720,331.157318 
	C551.296448,331.157318 561.026428,331.157318 571.201660,331.157318 
	C571.201660,341.343170 571.201660,351.073456 571.201660,361.049744 
	C591.458801,361.049744 611.254211,361.049744 631.024536,361.024597 
	C630.999512,360.999451 630.948059,360.950500 630.948059,360.950500 
	C630.963196,370.668579 630.978333,380.386688 630.995117,390.551239 
	C630.996765,390.997711 631.049927,390.950439 630.578552,390.972229 
	C610.519836,390.994049 590.932434,390.994049 570.887451,390.994049 
	C570.887451,401.250458 570.887451,410.980896 570.887451,421.157410 
	C560.703308,421.157410 550.973267,421.157410 541.333008,421.157410 
	C541.333008,431.347076 541.333008,441.070618 541.333008,450.679504 
	C581.365845,450.679504 621.065552,450.679504 661.049622,450.679504 
	C661.049622,440.557098 661.049622,430.753571 661.025940,420.976624 
	C661.002258,421.003204 660.953003,421.054688 660.953003,421.054688 
	C670.629028,421.040771 680.305115,421.026886 690.441895,421.055237 
z"/>
<path fill="#FEFEFF" opacity="1.000000" stroke="none" 
	d="
M390.442780,31.054173 
	C390.933563,40.766781 390.963593,50.436920 390.996613,60.553867 
	C390.999603,61.000671 391.049622,60.950275 390.578247,60.972076 
	C380.388000,60.979362 370.669159,60.964844 360.975739,60.975105 
	C361.001190,60.999889 361.052643,61.048904 361.052643,61.048904 
	C361.039001,51.371895 361.025330,41.694881 361.054138,31.557190 
	C370.725098,31.068243 380.353546,31.039976 390.442780,31.054173 
z"/>
<path fill="#FFFFFF" opacity="1.000000" stroke="none" 
	d="
M31.054661,451.557739 
	C40.868759,451.096985 50.640415,451.096985 61.011002,451.096985 
	C61.011002,441.154205 61.011002,431.585876 61.053757,421.556885 
	C70.766785,421.066071 80.437065,421.035950 90.554184,421.002930 
	C91.001030,421.000061 90.950249,420.950439 90.972343,421.421783 
	C90.994438,431.489868 90.994438,441.086609 90.994438,450.736206 
	C131.251633,450.736206 170.950684,450.736206 210.712784,450.736206 
	C210.712784,440.746399 210.712784,431.024078 210.712784,420.843323 
	C200.704391,420.843323 190.974380,420.843323 180.798889,420.843323 
	C180.798889,410.657532 180.798889,400.927277 180.798889,390.950226 
	C160.541443,390.950226 140.745926,390.950226 120.975250,390.975586 
	C121.000076,391.000977 121.051559,391.049927 121.051559,391.049927 
	C121.036591,381.331573 121.021629,371.613251 121.004776,361.448395 
	C121.002892,361.001892 120.950111,361.049622 121.421486,361.027863 
	C141.480103,361.006104 161.067352,361.006104 181.111786,361.006104 
	C181.111786,350.748901 181.111786,341.018463 181.111786,330.842468 
	C191.295670,330.842468 201.025757,330.842468 210.667099,330.842468 
	C210.667099,320.653625 210.667099,310.930145 210.667099,301.320007 
	C170.634766,301.320007 130.935364,301.320007 90.950424,301.320007 
	C90.950424,311.442932 90.950424,321.246399 90.974289,331.023499 
	C90.998146,330.997131 91.047279,330.945770 91.047279,330.945770 
	C81.370743,330.960175 71.694199,330.974609 61.556992,330.946289 
	C61.096321,321.131836 61.096321,311.360168 61.096321,300.989014 
	C51.154099,300.989014 41.585869,300.989014 31.556969,300.946289 
	C31.067863,291.274902 31.039433,281.646240 31.053753,271.556885 
	C78.910164,271.064575 126.723831,271.032928 174.537491,271.001526 
	C176.509171,271.000214 178.480835,271.001343 181.005753,271.001343 
	C181.005753,251.087021 181.005753,231.489960 181.003052,211.446106 
	C181.000366,210.999298 180.950424,211.049728 181.421799,211.027618 
	C191.488708,211.005508 201.084244,211.005508 211.116669,211.005508 
	C211.116669,231.258942 211.116669,250.975052 211.116669,271.143005 
	C221.284058,271.143005 231.012787,271.143005 241.185089,271.143005 
	C241.185089,281.324982 241.185089,291.054047 241.185089,301.049713 
	C251.445389,301.049713 261.247559,301.049713 271.024872,301.024841 
	C271.000000,301.000000 270.950287,300.950256 270.972046,301.421661 
	C270.993774,311.494598 270.993774,321.096161 270.993774,331.156616 
	C260.706421,331.156616 250.971268,331.156616 240.785049,331.156616 
	C240.785049,341.354919 240.785049,351.090576 240.785049,361.274780 
	C230.585754,361.274780 220.849945,361.274780 211.224304,361.274780 
	C211.224304,371.354767 211.224304,380.964355 211.224304,391.039093 
	C221.172394,391.039093 230.906250,391.039093 241.097504,391.039093 
	C241.097504,401.233459 241.097504,410.968719 241.097504,421.157410 
	C251.293854,421.157410 261.029053,421.157410 270.950165,421.157410 
	C270.950165,431.433594 270.950165,441.241608 270.975342,451.025085 
	C271.000549,451.000549 271.049652,450.950165 270.578247,450.971741 
	C260.511566,450.993317 250.916306,450.993317 240.870453,450.993317 
	C240.870453,461.268433 240.870453,470.997345 240.870453,481.170166 
	C230.688873,481.170166 220.960022,481.170166 210.801926,481.170166 
	C210.801926,501.342773 210.801926,521.058533 210.801926,540.950256 
	C200.554291,540.950256 190.752350,540.950256 180.975433,540.975464 
	C181.000458,541.000610 181.051849,541.049622 181.051849,541.049622 
	C181.051849,521.243103 181.051849,501.436615 181.051849,480.987793 
	C131.176041,480.987793 81.597153,480.987793 31.557627,480.945312 
	C31.068724,471.274719 31.040470,461.646606 31.054661,451.557739 
z"/>
<path fill="#FFFFFF" opacity="1.000000" stroke="none" 
	d="
M151.557404,210.945862 
	C151.066574,191.233337 151.036469,171.563370 151.003693,151.446655 
	C151.001022,150.999908 150.950363,151.049622 151.421753,151.027832 
	C161.612045,151.020584 171.330917,151.035126 181.024521,151.025208 
	C180.999237,151.000763 180.950348,150.950195 180.972076,151.421600 
	C180.979324,171.611923 180.964874,191.330826 180.950424,211.049728 
	C180.950424,211.049728 181.000366,210.999298 181.026077,210.974823 
	C171.373901,210.963028 161.696030,210.975723 151.557404,210.945862 
z"/>
<path fill="#FEFFFE" opacity="1.000000" stroke="none" 
	d="
M121.055031,91.558029 
	C140.725540,91.068825 160.353745,91.040337 180.442627,91.054359 
	C180.933304,100.766426 180.963318,110.435974 180.995483,120.552116 
	C180.997635,120.998711 181.049805,120.950371 180.578430,120.972107 
	C170.433716,120.993835 160.760376,120.993835 150.950363,120.993835 
	C150.950363,131.532318 150.950363,141.290970 150.950363,151.049622 
	C150.950363,151.049622 151.001022,150.999908 151.026703,150.975418 
	C141.374054,150.963745 131.695724,150.976562 121.556702,150.946609 
	C121.068253,131.275467 121.040497,111.647102 121.055031,91.558029 
z"/>
<path fill="#FEFFFE" opacity="1.000000" stroke="none" 
	d="
M240.442841,121.053787 
	C240.933746,130.766525 240.963898,140.436584 240.996521,150.553375 
	C240.998978,151.000092 241.049667,150.950272 240.578308,150.972336 
	C220.388092,150.979660 200.669220,150.964935 180.950348,150.950195 
	C180.950348,150.950195 180.999237,151.000763 181.002945,150.553802 
	C181.021042,140.388016 181.035431,130.669189 181.049805,120.950371 
	C181.049805,120.950371 180.997635,120.998711 180.971893,121.023247 
	C200.624817,121.035561 220.303452,121.023338 240.442841,121.053787 
z"/>
<path fill="#FFFFFF" opacity="1.000000" stroke="none" 
	d="
M301.055359,121.558380 
	C310.767395,121.067635 320.437195,121.037582 330.553772,121.004089 
	C331.000549,121.000648 330.950226,120.950264 330.971497,121.421684 
	C330.992737,141.492798 330.992737,161.092499 330.992737,181.157806 
	C341.295227,181.157806 351.031952,181.157806 361.048828,181.157806 
	C361.048828,201.436035 361.048828,221.244324 360.577606,241.029678 
	C350.512878,241.006760 340.919403,241.006760 330.877869,241.006760 
	C330.877869,251.261536 330.877869,260.988495 330.877869,271.157104 
	C320.701050,271.157104 310.974274,271.157104 300.806885,271.157104 
	C300.806885,281.335022 300.806885,291.061981 300.806885,300.950256 
	C290.550476,300.950256 280.750366,300.950256 270.950287,300.950256 
	C270.950287,300.950256 271.000000,301.000000 271.003143,300.553436 
	C271.006287,280.528900 271.006287,260.950897 271.006287,240.922424 
	C281.216583,240.922424 290.940308,240.922424 300.718506,240.922424 
	C300.718506,230.747665 300.718506,221.030167 300.718506,210.862015 
	C290.720093,210.862015 280.994781,210.862015 270.830780,210.862015 
	C270.830780,200.689362 270.830780,190.963837 270.830780,180.800293 
	C260.657562,180.800293 250.932236,180.800293 241.049667,180.800293 
	C241.049667,170.547470 241.049667,160.748871 241.049667,150.950272 
	C241.049667,150.950272 240.998978,151.000092 240.973236,151.024597 
	C260.748962,151.049088 280.550415,151.049088 301.013123,151.049088 
	C301.013123,141.195633 301.013123,131.607346 301.055359,121.558380 
z"/>
<path fill="#FEFEFF" opacity="1.000000" stroke="none" 
	d="
M331.054077,61.557358 
	C340.767426,61.066406 350.438324,61.036198 360.580933,61.027451 
	C361.052643,61.048904 361.001190,60.999889 360.997559,61.446503 
	C360.993927,81.545532 360.993927,101.197952 360.993927,120.950264 
	C350.502625,120.950264 340.726440,120.950264 330.950226,120.950264 
	C330.950226,120.950264 331.000549,121.000648 331.025085,121.026428 
	C331.036957,101.374176 331.024292,81.696136 331.054077,61.557358 
z"/>
<path fill="#FEFEFE" opacity="1.000000" stroke="none" 
	d="
M600.948425,150.950470 
	C600.961304,170.627441 600.974243,190.304413 600.944885,210.442017 
	C591.232117,210.932846 581.561646,210.963043 571.419556,210.971939 
	C570.947937,210.950623 570.999390,210.999573 571.003052,210.553253 
	C571.021057,190.388107 571.035400,170.669312 571.024597,150.974976 
	C570.999451,150.999435 570.950439,151.049728 571.421814,151.027542 
	C581.612000,151.020126 591.330750,151.034897 601.024658,151.024506 
	C600.999695,150.999359 600.948425,150.950470 600.948425,150.950470 
z"/>
<path fill="#FFFFFE" opacity="1.000000" stroke="none" 
	d="
M450.441956,121.055115 
	C450.902679,130.887527 450.902679,140.677597 450.902679,151.006104 
	C470.927826,151.006104 490.517456,151.006104 510.553955,151.003204 
	C511.000763,151.000320 510.950317,150.950455 510.972229,151.421799 
	C510.994110,161.484940 510.994110,171.076752 510.994110,181.114075 
	C500.745789,181.114075 491.020355,181.114075 480.855408,181.114075 
	C480.855408,191.285980 480.855408,201.010880 480.855408,211.175354 
	C470.682281,211.175354 460.957092,211.175354 451.331573,211.175354 
	C451.331573,221.353104 451.331573,231.072067 451.331573,241.237213 
	C461.381195,241.237213 471.104736,241.237213 480.950378,241.237213 
	C480.950378,261.478149 480.950378,281.263916 480.950378,301.049683 
	C480.950378,301.049683 480.999847,300.999847 480.553375,300.997314 
	C470.513245,300.994781 460.919556,300.994781 450.878723,300.994781 
	C450.878723,290.740356 450.878723,281.013092 450.878723,270.843994 
	C440.702789,270.843994 430.975952,270.843994 420.808044,270.843994 
	C420.808044,260.665924 420.808044,250.938889 420.808044,241.052490 
	C410.551208,241.052490 400.751190,241.052490 390.972656,240.580811 
	C390.994202,220.509293 390.994202,200.909470 390.994202,180.843811 
	C401.292572,180.843811 411.029297,180.843811 421.049713,180.843811 
	C421.049713,160.565933 421.049713,140.758118 421.024750,120.975616 
	C420.999786,121.000931 420.950775,121.052414 420.950775,121.052414 
	C430.627594,121.039192 440.304443,121.025970 450.441956,121.055115 
z"/>
<path fill="#FFFFFE" opacity="1.000000" stroke="none" 
	d="
M390.973877,61.025150 
	C400.626068,61.037010 410.303986,61.024395 420.442566,61.054455 
	C420.933411,80.767784 420.963623,100.438431 420.972290,120.580750 
	C420.950775,121.052414 420.999786,121.000931 420.553345,120.997368 
	C410.537872,120.993805 400.968842,120.993805 391.049622,120.993805 
	C391.049622,100.668953 391.049622,80.809616 391.049622,60.950275 
	C391.049622,60.950275 390.999603,61.000671 390.973877,61.025150 
z"/>
<path fill="#FFFEFE" opacity="1.000000" stroke="none" 
	d="
M630.946167,150.442627 
	C621.232971,150.933746 611.562256,150.964142 601.420044,150.972504 
	C600.948425,150.950470 600.999695,150.999359 601.002563,150.553116 
	C601.005432,140.433533 601.005432,130.760208 601.005432,120.950333 
	C590.467529,120.950333 580.708923,120.950333 570.975586,120.975281 
	C571.000732,121.000237 571.052124,121.049171 571.052124,121.049171 
	C571.038635,111.372108 571.025085,101.695053 571.054199,91.557335 
	C590.725098,91.068619 610.353394,91.040550 630.442383,91.054955 
	C630.931580,110.725586 630.960205,130.353745 630.946167,150.442627 
z"/>
<path fill="#FEFEFF" opacity="1.000000" stroke="none" 
	d="
M511.025208,151.026001 
	C511.036835,141.373688 511.023987,131.695694 511.053833,121.557037 
	C530.767273,121.066406 550.438110,121.036438 570.580505,121.027824 
	C571.052124,121.049171 571.000732,121.000237 570.997070,121.446693 
	C570.979065,131.612015 570.964722,141.330872 570.950439,151.049728 
	C570.950439,151.049728 570.999451,150.999435 570.553223,150.996552 
	C550.388062,150.979263 530.669189,150.964859 510.950317,150.950455 
	C510.950317,150.950455 511.000763,151.000320 511.025208,151.026001 
z"/>
<path fill="#FFFEFE" opacity="1.000000" stroke="none" 
	d="
M600.442322,541.054321 
	C600.933105,560.765625 600.963196,580.434265 600.994141,600.549316 
	C600.994934,600.995605 601.049988,600.950684 600.578552,600.972412 
	C590.388062,600.979736 580.668945,600.965271 570.976807,600.973511 
	C571.003662,600.996338 571.049255,601.050110 571.027527,600.578735 
	C571.020325,580.388245 571.034912,560.669189 571.049438,540.950134 
	C571.049438,540.950134 571.001770,541.002625 570.976013,541.026978 
	C580.627380,541.038208 590.304504,541.025024 600.442322,541.054321 
z"/>
<path fill="#FEFFFF" opacity="1.000000" stroke="none" 
	d="
M571.557190,660.946167 
	C571.066284,651.233826 571.036194,641.564026 571.004089,631.447693 
	C571.002075,631.001099 570.950134,631.049683 571.421509,631.027710 
	C581.566467,631.005676 591.239929,631.005676 601.049988,631.005676 
	C601.049988,620.467957 601.049988,610.709351 601.049988,600.950684 
	C601.049988,600.950684 600.994934,600.995605 600.969299,601.020203 
	C610.623230,601.033630 620.302734,601.022522 630.442993,601.053955 
	C630.931641,620.724854 630.959534,640.353210 630.945190,660.442200 
	C611.274536,660.931519 591.646240,660.960083 571.557190,660.946167 
z"/>
<path fill="#FEFFFE" opacity="1.000000" stroke="none" 
	d="
M450.946411,630.442993 
	C441.234192,630.933899 431.564667,630.963989 421.448669,630.995483 
	C421.002167,630.996887 421.049561,631.049866 421.027405,630.578491 
	C421.005280,610.507629 421.005280,590.908142 421.005280,570.843506 
	C410.706390,570.843506 400.969696,570.843506 390.947388,570.843506 
	C390.947388,550.566467 390.947388,530.758728 391.419067,510.972961 
	C401.484711,510.994904 411.078674,510.994904 421.120850,510.994904 
	C421.120850,500.740234 421.120850,491.012878 421.120850,480.843323 
	C431.297882,480.843323 441.024933,480.843323 451.192322,480.843323 
	C451.192322,470.664581 451.192322,460.937256 451.192322,451.049713 
	C461.448761,451.049713 471.249207,451.049713 481.049652,451.049713 
	C481.049652,451.049713 481.000000,451.000000 480.997253,451.446533 
	C480.994537,471.470795 480.994537,491.048523 480.994537,511.077637 
	C470.782776,511.077637 461.057800,511.077637 451.282593,511.077637 
	C451.282593,521.253357 451.282593,530.970886 451.282593,541.139648 
	C461.281006,541.139648 471.005829,541.139648 481.170502,541.139648 
	C481.170502,551.312561 481.170502,561.038025 481.170502,571.200439 
	C491.344757,571.200439 501.070221,571.200439 510.950317,571.200439 
	C510.950317,581.452515 510.950317,591.251099 510.975189,601.024353 
	C511.000061,600.999023 511.049042,600.947632 511.049042,600.947632 
	C491.248474,600.947632 471.447876,600.947632 450.989136,600.947632 
	C450.989136,610.805664 450.989136,620.393982 450.946411,630.442993 
z"/>
<path fill="#FEFEFF" opacity="1.000000" stroke="none" 
	d="
M540.999939,630.833435 
	C531.339294,630.885071 521.678650,630.936646 511.557251,630.945801 
	C511.066284,621.232544 511.036102,611.561768 511.027466,601.419312 
	C511.049042,600.947632 511.000061,600.999023 511.446594,601.002502 
	C521.595520,601.059509 531.297852,601.113037 541.000305,601.518677 
	C541.333557,602.913879 541.666809,603.956970 542.000000,605.438965 
	C541.666687,610.918640 541.333313,615.959351 541.000000,621.428467 
	C541.000000,623.571289 541.000000,625.285645 541.000000,627.333313 
	C541.000000,628.111084 541.000000,628.555542 541.000000,629.305542 
	C541.000000,630.018555 540.999939,630.426025 540.999939,630.833435 
z"/>
<path fill="#FEFFFF" opacity="1.000000" stroke="none" 
	d="
M541.000000,621.000000 
	C541.333313,615.959351 541.666687,610.918640 542.248901,605.254150 
	C542.338623,603.475769 542.179443,602.321289 542.482483,601.093506 
	C552.312927,601.030212 561.681091,601.040161 571.049255,601.050110 
	C571.049255,601.050110 571.003662,600.996338 570.998657,601.444946 
	C570.979126,611.612244 570.964600,621.330933 570.950134,631.049683 
	C570.950134,631.049683 571.002075,631.001099 571.027832,630.976562 
	C562.011230,630.961182 552.968872,630.970398 543.412231,630.602478 
	C542.265198,629.816895 541.632629,629.408447 541.000000,629.000000 
	C541.000000,628.555542 541.000000,628.111084 541.366333,627.258301 
	C543.683350,624.625000 544.079468,622.594849 541.000000,621.000000 
z"/>
<path fill="#FEFFFF" opacity="1.000000" stroke="none" 
	d="
M541.000000,629.305542 
	C541.632629,629.408447 542.265198,629.816895 542.948608,630.529297 
	C542.553345,630.880981 542.107361,630.928772 541.330627,630.904968 
	C540.999939,630.426025 541.000000,630.018555 541.000000,629.305542 
z"/>
<path fill="#FEFFFF" opacity="1.000000" stroke="none" 
	d="
M420.945740,690.442627 
	C411.231293,690.933655 401.559357,690.963928 391.415161,690.975159 
	C390.942902,690.956055 390.994080,691.005432 391.000244,690.556030 
	C391.006378,670.454163 391.006378,650.801697 391.006378,631.049866 
	C401.497101,631.049866 411.273346,631.049866 421.049561,631.049866 
	C421.049561,631.049866 421.002167,630.996887 420.977600,630.971191 
	C420.964813,650.624268 420.976562,670.303101 420.945740,690.442627 
z"/>
<path fill="#FFFFFF" opacity="1.000000" stroke="none" 
	d="
M151.055054,601.046631 
	C151.040283,581.370239 151.025513,561.693909 151.053619,541.556763 
	C160.767258,541.065796 170.437973,541.035461 180.580276,541.027405 
	C181.051849,541.049622 181.000458,541.000610 180.997635,541.446838 
	C180.980011,561.612000 180.965225,581.330994 180.974762,601.024536 
	C180.999100,600.999084 181.049866,600.950378 180.578461,600.971802 
	C170.388046,600.978943 160.669037,600.964661 150.976822,600.973877 
	C151.003632,600.997314 151.055054,601.046631 151.055054,601.046631 
z"/>
<path fill="#FEFEFE" opacity="1.000000" stroke="none" 
	d="
M301.557617,630.945801 
	C301.096893,621.113586 301.096893,611.323853 301.096893,600.992676 
	C281.072418,600.992676 261.483612,600.992676 241.448242,600.994934 
	C241.001724,600.997192 241.049591,601.049927 241.028183,600.578552 
	C241.006775,590.515564 241.006775,580.923950 241.006775,570.885864 
	C251.255875,570.885864 260.981018,570.885864 271.145020,570.885864 
	C271.145020,560.713013 271.145020,550.988159 271.145020,540.824036 
	C281.317505,540.824036 291.042877,540.824036 300.668610,540.824036 
	C300.668610,530.646606 300.668610,520.927734 300.668610,510.762207 
	C290.618988,510.762207 280.893860,510.762207 271.049652,510.762207 
	C271.049652,490.521118 271.049652,470.735657 271.049652,450.950165 
	C271.049652,450.950165 271.000549,451.000549 271.446777,451.003693 
	C281.581085,450.966888 291.269196,450.926941 300.970093,451.362793 
	C300.989044,460.158813 301.120026,468.481781 300.939514,476.797974 
	C300.867737,480.102905 302.034027,481.141968 305.265747,481.057434 
	C312.416260,480.870392 319.578461,481.128998 326.729004,480.942932 
	C329.954590,480.858978 331.160614,481.883881 331.059326,485.197510 
	C330.856018,491.847504 331.246063,498.520447 330.913361,505.159973 
	C330.691437,509.588593 331.812775,511.348724 336.630096,511.114746 
	C344.763245,510.719727 352.931458,511.046844 361.047302,511.533203 
	C361.009644,531.575867 361.009644,551.155579 361.009644,571.193604 
	C350.666656,571.193604 340.935394,571.193604 330.950409,571.193604 
	C330.950409,591.454712 330.950409,611.252319 330.974243,631.023499 
	C330.998108,630.997131 331.047272,630.945679 331.047272,630.945679 
	C321.370972,630.959900 311.694641,630.974060 301.557617,630.945801 
z"/>
<path fill="#FEFEFF" opacity="1.000000" stroke="none" 
	d="
M361.030518,690.979614 
	C351.376587,690.966248 341.697113,690.977478 331.556885,690.946167 
	C331.066223,671.232300 331.036224,651.560913 331.026733,631.417603 
	C331.047272,630.945679 330.998108,630.997131 331.445648,631.001831 
	C341.462097,631.006531 351.031006,631.006531 360.950043,631.006531 
	C360.950043,651.331116 360.950043,671.190186 360.950043,691.049316 
	C360.950043,691.049316 361.004913,691.004272 361.030518,690.979614 
z"/>
<path fill="#FEFFFF" opacity="1.000000" stroke="none" 
	d="
M180.945816,660.442627 
	C161.274872,660.931641 141.646423,660.959961 121.557304,660.945801 
	C121.068329,641.274780 121.040016,621.646301 121.054306,601.557129 
	C130.768295,601.066284 140.439682,601.036133 150.583069,601.026306 
	C151.055054,601.046631 151.003632,600.997314 150.998627,601.445251 
	C150.993637,611.566711 150.993637,621.240173 150.993637,631.049866 
	C161.532104,631.049866 171.290878,631.049866 181.024689,631.024536 
	C180.999741,630.999207 180.948212,630.950195 180.948212,630.950195 
	C180.961578,640.627441 180.974945,650.304626 180.945816,660.442627 
z"/>
<path fill="#FFFEFF" opacity="1.000000" stroke="none" 
	d="
M240.977142,600.971436 
	C240.964310,610.624390 240.976059,620.303101 240.945251,630.442383 
	C221.232254,630.933533 201.561813,630.963928 181.419800,630.972290 
	C180.948212,630.950195 180.999741,630.999207 181.002686,630.553101 
	C181.020386,620.388184 181.035126,610.669250 181.049866,600.950378 
	C181.049866,600.950378 180.999100,600.999084 181.446136,601.002502 
	C201.611984,601.020630 221.330780,601.035278 241.049591,601.049927 
	C241.049591,601.049927 241.001724,600.997192 240.977142,600.971436 
z"/>
<path fill="#FEFFFE" opacity="1.000000" stroke="none" 
	d="
M660.945862,360.442566 
	C651.232727,360.933502 641.562012,360.963745 631.419678,360.972229 
	C630.948059,360.950500 630.999512,360.999451 631.002808,360.553192 
	C631.006042,350.433533 631.006042,340.760162 631.006042,331.049622 
	C641.532593,331.049622 651.291138,331.049622 661.049744,331.049622 
	C661.049744,331.049622 660.999329,330.999512 660.974854,330.973785 
	C660.962952,340.625977 660.975647,350.303925 660.945862,360.442566 
z"/>
<path fill="#FFFFFF" opacity="1.000000" stroke="none" 
	d="
M660.442505,391.054321 
	C660.933472,400.768219 660.963684,410.439514 660.973511,420.582733 
	C660.953003,421.054688 661.002258,421.003204 660.554565,420.998413 
	C650.433350,420.993652 640.759888,420.993652 631.049927,420.993652 
	C631.049927,410.467773 631.049927,400.709106 631.049927,390.950439 
	C631.049927,390.950439 630.996765,390.997711 630.971069,391.022278 
	C640.624146,391.035156 650.302979,391.023438 660.442505,391.054321 
z"/>
<path fill="#FEFFFF" opacity="1.000000" stroke="none" 
	d="
M121.028610,360.977295 
	C111.375519,360.964569 101.696709,360.976471 91.557220,360.945862 
	C91.066299,351.232117 91.036057,341.560822 91.026550,331.417664 
	C91.047279,330.945770 90.998146,330.997131 91.445663,331.001587 
	C101.566666,331.006073 111.240143,331.006073 120.950111,331.006073 
	C120.950111,341.532227 120.950111,351.290924 120.950111,361.049622 
	C120.950111,361.049622 121.002892,361.001892 121.028610,360.977295 
z"/>
<path fill="#FFFFFE" opacity="1.000000" stroke="none" 
	d="
M91.025482,421.025787 
	C91.037216,411.373718 91.024498,401.695892 91.054451,391.557434 
	C100.767563,391.066528 110.438004,391.036285 120.580002,391.027985 
	C121.051559,391.049927 121.000076,391.000977 120.997025,391.447021 
	C120.993973,401.566437 120.993973,411.239838 120.993973,420.950439 
	C110.467445,420.950439 100.708847,420.950439 90.950249,420.950439 
	C90.950249,420.950439 91.001030,421.000061 91.025482,421.025787 
z"/>
<path fill="#FF4400" opacity="1.000000" stroke="none" 
	d="
M361.421448,691.027588 
	C360.950043,671.190186 360.950043,651.331116 360.950043,631.006531 
	C351.031006,631.006531 341.462097,631.006531 331.421814,631.028198 
	C330.950409,611.252319 330.950409,591.454712 330.950409,571.193604 
	C340.935394,571.193604 350.666656,571.193604 361.009644,571.193604 
	C361.009644,551.155579 361.009644,531.575867 361.024994,511.523956 
	C361.040344,511.051788 361.056885,511.096771 361.519958,511.054016 
	C371.671906,511.024078 381.360809,511.036865 391.024231,511.024872 
	C390.998810,511.000061 390.947388,510.950989 390.947388,510.950989 
	C390.947388,530.758728 390.947388,550.566467 390.947388,570.843506 
	C400.969696,570.843506 410.706390,570.843506 421.005280,570.843506 
	C421.005280,590.908142 421.005280,610.507629 421.027405,630.578491 
	C411.273346,631.049866 401.497101,631.049866 391.006378,631.049866 
	C391.006378,650.801697 391.006378,670.454163 391.028229,690.577881 
	C381.330994,691.034790 371.611908,691.020264 361.421448,691.027588 
z"/>
<path fill="#FF4400" opacity="1.000000" stroke="none" 
	d="
M300.957275,450.886993 
	C291.269196,450.926941 281.581085,450.966888 271.421570,451.028259 
	C270.950165,441.241608 270.950165,431.433594 270.950165,421.157410 
	C261.029053,421.157410 251.293854,421.157410 241.097504,421.157410 
	C241.097504,410.968719 241.097504,401.233459 241.097504,391.039093 
	C230.906250,391.039093 221.172394,391.039093 211.224304,391.039093 
	C211.224304,380.964355 211.224304,371.354767 211.224304,361.274780 
	C220.849945,361.274780 230.585754,361.274780 240.785049,361.274780 
	C240.785049,351.090576 240.785049,341.354919 240.785049,331.156616 
	C250.971268,331.156616 260.706421,331.156616 270.993774,331.156616 
	C270.993774,321.096161 270.993774,311.494598 270.972046,301.421661 
	C280.750366,300.950256 290.550476,300.950256 300.806885,300.950256 
	C300.806885,291.061981 300.806885,281.335022 300.806885,271.157104 
	C310.974274,271.157104 320.701050,271.157104 330.877869,271.157104 
	C330.877869,260.988495 330.877869,251.261536 330.877869,241.006760 
	C340.919403,241.006760 350.512878,241.006760 360.553131,241.003967 
	C360.999878,241.001160 360.950317,240.950333 360.971985,241.421692 
	C360.993622,251.494522 360.993622,261.095978 360.993622,270.686462 
	C371.298065,270.686462 381.025574,270.686462 391.049622,270.686462 
	C391.049622,260.566864 391.049622,250.758636 391.024841,240.975784 
	C391.000061,241.001160 390.951141,241.052490 390.951141,241.052490 
	C400.751190,241.052490 410.551208,241.052490 420.808044,241.052490 
	C420.808044,250.938889 420.808044,260.665924 420.808044,270.843994 
	C430.975952,270.843994 440.702789,270.843994 450.878723,270.843994 
	C450.878723,281.013092 450.878723,290.740356 450.878723,300.994781 
	C460.919556,300.994781 470.513245,300.994781 480.578308,300.972595 
	C481.049683,310.758392 481.049683,320.566376 481.049683,330.842438 
	C490.970551,330.842438 500.705688,330.842438 510.901978,330.842438 
	C510.901978,341.031067 510.901978,350.766266 510.901978,360.960571 
	C521.094421,360.960571 530.828186,360.960571 540.775269,360.960571 
	C540.775269,371.035217 540.775269,380.644806 540.775269,390.725464 
	C531.151367,390.725464 521.415710,390.725464 511.215912,390.725464 
	C511.215912,400.910156 511.215912,410.645630 511.215912,420.843628 
	C501.028992,420.843628 491.293854,420.843628 481.006256,420.843628 
	C481.006256,430.903931 481.006256,440.505402 481.027954,450.578308 
	C471.249207,451.049713 461.448761,451.049713 451.192322,451.049713 
	C451.192322,460.937256 451.192322,470.664581 451.192322,480.843323 
	C441.024933,480.843323 431.297882,480.843323 421.120850,480.843323 
	C421.120850,491.012878 421.120850,500.740234 421.120850,510.994904 
	C411.078674,510.994904 401.484711,510.994904 391.419067,510.972961 
	C390.947388,510.950989 390.998810,511.000061 391.002319,510.553467 
	C391.005829,500.505493 391.005829,490.904114 391.005829,480.885803 
	C380.638733,480.885803 370.840302,480.885803 361.023499,480.424622 
	C361.005127,470.373047 361.005127,460.782654 361.005127,450.737640 
	C381.400818,450.737640 401.132019,450.737640 421.147339,450.737640 
	C421.147339,440.656372 421.147339,431.043427 421.147339,420.965759 
	C431.167419,420.965759 440.903076,420.965759 450.718872,420.965759 
	C450.718872,390.767609 450.718872,361.042358 450.718872,330.846191 
	C440.709900,330.846191 430.973206,330.846191 420.782501,330.846191 
	C420.782501,320.644287 420.782501,310.907288 420.782501,301.372772 
	C390.582947,301.372772 360.856720,301.372772 330.839661,301.372772 
	C330.839661,311.356842 330.839661,320.969482 330.839661,331.047272 
	C320.819427,331.047272 311.084473,331.047272 301.681580,331.047272 
	C301.272034,331.650757 301.104919,331.782043 301.104736,331.913574 
	C301.048004,371.571350 301.002777,411.229187 300.957275,450.886993 
z"/>
<path fill="#FF4400" opacity="1.000000" stroke="none" 
	d="
M510.972229,151.421799 
	C530.669189,150.964859 550.388062,150.979263 570.578369,150.972076 
	C571.035400,170.669312 571.021057,190.388107 571.028198,210.578339 
	C561.247559,211.049759 551.445435,211.049759 541.198120,211.049759 
	C541.198120,230.939728 541.198120,250.655579 541.198120,270.828979 
	C531.040466,270.828979 521.311768,270.828979 511.129944,270.828979 
	C511.129944,281.002594 511.129944,290.731171 511.129944,301.006226 
	C501.083771,301.006226 491.488495,301.006226 481.421783,301.027954 
	C480.950378,281.263916 480.950378,261.478149 480.950378,241.237213 
	C471.104736,241.237213 461.381195,241.237213 451.331573,241.237213 
	C451.331573,231.072067 451.331573,221.353104 451.331573,211.175354 
	C460.957092,211.175354 470.682281,211.175354 480.855408,211.175354 
	C480.855408,201.010880 480.855408,191.285980 480.855408,181.114075 
	C491.020355,181.114075 500.745789,181.114075 510.994110,181.114075 
	C510.994110,171.076752 510.994110,161.484940 510.972229,151.421799 
z"/>
<path fill="#FF4400" opacity="1.000000" stroke="none" 
	d="
M571.027527,600.578735 
	C561.681091,601.040161 552.312927,601.030212 542.227539,601.030640 
	C541.340271,601.082825 541.170227,601.124695 541.000244,601.166565 
	C531.297852,601.113037 521.595520,601.059509 511.421722,601.027832 
	C510.950317,591.251099 510.950317,581.452515 510.950317,571.200439 
	C501.070221,571.200439 491.344757,571.200439 481.170502,571.200439 
	C481.170502,561.038025 481.170502,551.312561 481.170502,541.139648 
	C471.005829,541.139648 461.281006,541.139648 451.282593,541.139648 
	C451.282593,530.970886 451.282593,521.253357 451.282593,511.077637 
	C461.057800,511.077637 470.782776,511.077637 480.994537,511.077637 
	C480.994537,491.048523 480.994537,471.470795 480.972412,451.421722 
	C490.752258,450.950348 500.554199,450.950348 510.815063,450.950348 
	C510.815063,460.945068 510.815063,470.674286 510.815063,480.855835 
	C520.987610,480.855835 530.716248,480.855835 540.883667,480.855835 
	C540.883667,501.023560 540.883667,520.739441 540.883667,540.993469 
	C550.916077,540.993469 560.511414,540.993469 570.578064,540.971802 
	C571.034912,560.669189 571.020325,580.388245 571.027527,600.578735 
z"/>
<path fill="#FF4400" opacity="1.000000" stroke="none" 
	d="
M630.578552,390.972229 
	C631.049927,400.709106 631.049927,410.467773 631.049927,420.993652 
	C640.759888,420.993652 650.433350,420.993652 660.578247,420.971832 
	C661.049622,430.753571 661.049622,440.557098 661.049622,450.679504 
	C621.065552,450.679504 581.365845,450.679504 541.333008,450.679504 
	C541.333008,441.070618 541.333008,431.347076 541.333008,421.157410 
	C550.973267,421.157410 560.703308,421.157410 570.887451,421.157410 
	C570.887451,410.980896 570.887451,401.250458 570.887451,390.994049 
	C590.932434,390.994049 610.519836,390.994049 630.578552,390.972229 
z"/>
<path fill="#FF4400" opacity="1.000000" stroke="none" 
	d="
M661.028076,330.578247 
	C651.291138,331.049622 641.532593,331.049622 631.006042,331.049622 
	C631.006042,340.760162 631.006042,350.433533 631.027832,360.578339 
	C611.254211,361.049744 591.458801,361.049744 571.201660,361.049744 
	C571.201660,351.073456 571.201660,341.343170 571.201660,331.157318 
	C561.026428,331.157318 551.296448,331.157318 541.287720,331.157318 
	C541.287720,320.976868 541.287720,311.254730 541.287720,301.264374 
	C581.048889,301.264374 620.747803,301.264374 661.006348,301.264374 
	C661.006348,310.913879 661.006348,320.510376 661.028076,330.578247 
z"/>
<path fill="#FF4400" opacity="1.000000" stroke="none" 
	d="
M390.578247,60.972076 
	C391.049622,80.809616 391.049622,100.668953 391.049622,120.993805 
	C400.968842,120.993805 410.537872,120.993805 420.578308,120.972061 
	C421.049713,140.758118 421.049713,160.565933 421.049713,180.843811 
	C411.029297,180.843811 401.292572,180.843811 390.994202,180.843811 
	C390.994202,200.909470 390.994202,220.509293 390.972656,240.580811 
	C390.951141,241.052490 391.000061,241.001160 390.553436,240.997482 
	C380.387970,240.979309 370.669159,240.964813 360.950317,240.950333 
	C360.950317,240.950333 360.999878,241.001160 361.024353,241.026886 
	C361.048828,221.244324 361.048828,201.436035 361.048828,181.157806 
	C351.031952,181.157806 341.295227,181.157806 330.992737,181.157806 
	C330.992737,161.092499 330.992737,141.492798 330.971497,121.421684 
	C340.726440,120.950264 350.502625,120.950264 360.993927,120.950264 
	C360.993927,101.197952 360.993927,81.545532 360.972107,61.421719 
	C370.669159,60.964844 380.388000,60.979362 390.578247,60.972076 
z"/>
<path fill="#FF4400" opacity="1.000000" stroke="none" 
	d="
M240.578308,150.972336 
	C241.049667,160.748871 241.049667,170.547470 241.049667,180.800293 
	C250.932236,180.800293 260.657562,180.800293 270.830780,180.800293 
	C270.830780,190.963837 270.830780,200.689362 270.830780,210.862015 
	C280.994781,210.862015 290.720093,210.862015 300.718506,210.862015 
	C300.718506,221.030167 300.718506,230.747665 300.718506,240.922424 
	C290.940308,240.922424 281.216583,240.922424 271.006287,240.922424 
	C271.006287,260.950897 271.006287,280.528900 271.028015,300.578308 
	C261.247559,301.049713 251.445389,301.049713 241.185089,301.049713 
	C241.185089,291.054047 241.185089,281.324982 241.185089,271.143005 
	C231.012787,271.143005 221.284058,271.143005 211.116669,271.143005 
	C211.116669,250.975052 211.116669,231.258942 211.116669,211.005508 
	C201.084244,211.005508 191.488708,211.005508 181.421799,211.027618 
	C180.964874,191.330826 180.979324,171.611923 180.972076,151.421616 
	C200.669220,150.964935 220.388092,150.979660 240.578308,150.972336 
z"/>
<path fill="#FF4400" opacity="1.000000" stroke="none" 
	d="
M241.028183,600.578552 
	C221.330780,601.035278 201.611984,601.020630 181.421814,601.027954 
	C180.965225,581.330994 180.980011,561.612000 180.972610,541.421631 
	C190.752350,540.950256 200.554291,540.950256 210.801926,540.950256 
	C210.801926,521.058533 210.801926,501.342773 210.801926,481.170166 
	C220.960022,481.170166 230.688873,481.170166 240.870453,481.170166 
	C240.870453,470.997345 240.870453,461.268433 240.870453,450.993317 
	C250.916306,450.993317 260.511566,450.993317 270.578247,450.971741 
	C271.049652,470.735657 271.049652,490.521118 271.049652,510.762207 
	C280.893860,510.762207 290.618988,510.762207 300.668610,510.762207 
	C300.668610,520.927734 300.668610,530.646606 300.668610,540.824036 
	C291.042877,540.824036 281.317505,540.824036 271.145020,540.824036 
	C271.145020,550.988159 271.145020,560.713013 271.145020,570.885864 
	C260.981018,570.885864 251.255875,570.885864 241.006775,570.885864 
	C241.006775,580.923950 241.006775,590.515564 241.028183,600.578552 
z"/>
<path fill="#FF4400" opacity="1.000000" stroke="none" 
	d="
M90.972343,421.421783 
	C100.708847,420.950439 110.467445,420.950439 120.993973,420.950439 
	C120.993973,411.239838 120.993973,401.566437 120.972198,391.421631 
	C140.745926,390.950226 160.541443,390.950226 180.798889,390.950226 
	C180.798889,400.927277 180.798889,410.657532 180.798889,420.843323 
	C190.974380,420.843323 200.704391,420.843323 210.712784,420.843323 
	C210.712784,431.024078 210.712784,440.746399 210.712784,450.736206 
	C170.950684,450.736206 131.251633,450.736206 90.994438,450.736206 
	C90.994438,441.086609 90.994438,431.489868 90.972343,421.421783 
z"/>
<path fill="#FF4400" opacity="1.000000" stroke="none" 
	d="
M121.421486,361.027863 
	C120.950111,351.290924 120.950111,341.532227 120.950111,331.006073 
	C111.240143,331.006073 101.566666,331.006073 91.421806,331.027954 
	C90.950424,321.246399 90.950424,311.442932 90.950424,301.320007 
	C130.935364,301.320007 170.634766,301.320007 210.667099,301.320007 
	C210.667099,310.930145 210.667099,320.653625 210.667099,330.842468 
	C201.025757,330.842468 191.295670,330.842468 181.111786,330.842468 
	C181.111786,341.018463 181.111786,350.748901 181.111786,361.006104 
	C161.067352,361.006104 141.480103,361.006104 121.421486,361.027863 
z"/>
<path fill="#FF4400" opacity="1.000000" stroke="none" 
	d="
M180.578430,120.972107 
	C181.035431,130.669189 181.021042,140.388016 181.028229,150.578247 
	C171.330917,151.035126 161.612045,151.020584 151.421753,151.027832 
	C150.950363,141.290970 150.950363,131.532318 150.950363,120.993835 
	C160.760376,120.993835 170.433716,120.993835 180.578430,120.972107 
z"/>
<path fill="#FF4400" opacity="1.000000" stroke="none" 
	d="
M571.421753,151.027542 
	C570.964722,141.330872 570.979065,131.612015 570.971924,121.421738 
	C580.708923,120.950333 590.467529,120.950333 601.005432,120.950333 
	C601.005432,130.760208 601.005432,140.433533 601.027466,150.578262 
	C591.330750,151.034897 581.612000,151.020126 571.421753,151.027542 
z"/>
<path fill="#FF4400" opacity="1.000000" stroke="none" 
	d="
M571.421509,631.027710 
	C570.964600,621.330933 570.979126,611.612244 570.971802,601.422119 
	C580.668945,600.965271 590.388062,600.979736 600.578552,600.972412 
	C601.049988,610.709351 601.049988,620.467957 601.049988,631.005676 
	C591.239929,631.005676 581.566467,631.005676 571.421509,631.027710 
z"/>
<path fill="#FEFFFF" opacity="1.000000" stroke="none" 
	d="
M541.000000,621.428467 
	C544.079468,622.594849 543.683350,624.625000 541.366333,626.924927 
	C541.000000,625.285645 541.000000,623.571289 541.000000,621.428467 
z"/>
<path fill="#FEFFFF" opacity="1.000000" stroke="none" 
	d="
M541.000305,601.518677 
	C541.170227,601.124695 541.340271,601.082825 541.765259,601.103882 
	C542.179443,602.321289 542.338623,603.475769 542.248901,604.815125 
	C541.666809,603.956970 541.333557,602.913879 541.000305,601.518677 
z"/>
<path fill="#FF4400" opacity="1.000000" stroke="none" 
	d="
M180.578461,600.971802 
	C181.035126,610.669250 181.020386,620.388184 181.027649,630.578491 
	C171.290878,631.049866 161.532104,631.049866 150.993637,631.049866 
	C150.993637,621.240173 150.993637,611.566711 150.971832,601.421814 
	C160.669037,600.964661 170.388046,600.978943 180.578461,600.971802 
z"/>
<path fill="#F7FEFE" opacity="1.000000" stroke="none" 
	d="
M300.970093,451.362793 
	C301.002777,411.229187 301.048004,371.571350 301.104736,331.913574 
	C301.104919,331.782043 301.272034,331.650757 301.681580,331.047272 
	C311.084473,331.047272 320.819427,331.047272 330.839661,331.047272 
	C330.839661,320.969482 330.839661,311.356842 330.839661,301.372772 
	C360.856720,301.372772 390.582947,301.372772 420.782501,301.372772 
	C420.782501,310.907288 420.782501,320.644287 420.782501,330.846191 
	C430.973206,330.846191 440.709900,330.846191 450.718872,330.846191 
	C450.718872,361.042358 450.718872,390.767609 450.718872,420.965759 
	C440.903076,420.965759 431.167419,420.965759 421.147339,420.965759 
	C421.147339,431.043427 421.147339,440.656372 421.147339,450.737640 
	C401.132019,450.737640 381.400818,450.737640 361.005127,450.737640 
	C361.005127,460.782654 361.005127,470.373047 361.011108,480.900574 
	C361.030334,491.590729 361.043610,501.343750 361.056885,511.096771 
	C361.056885,511.096771 361.040344,511.051788 361.062622,511.061035 
	C352.931458,511.046844 344.763245,510.719727 336.630096,511.114746 
	C331.812775,511.348724 330.691437,509.588593 330.913361,505.159973 
	C331.246063,498.520447 330.856018,491.847504 331.059326,485.197510 
	C331.160614,481.883881 329.954590,480.858978 326.729004,480.942932 
	C319.578461,481.128998 312.416260,480.870392 305.265747,481.057434 
	C302.034027,481.141968 300.867737,480.102905 300.939514,476.797974 
	C301.120026,468.481781 300.989044,460.158813 300.970093,451.362793 
M420.999695,363.678589 
	C421.487366,360.795898 419.607330,360.971436 417.666077,360.981049 
	C408.889038,361.024567 400.111633,361.000092 390.942810,361.000092 
	C390.942810,350.812286 390.942810,341.070343 390.942810,331.228760 
	C380.807495,331.228760 371.072388,331.228760 360.939789,331.228760 
	C360.939789,341.190887 360.939789,350.932617 360.939789,361.061737 
	C350.807556,361.061737 341.065857,361.061737 331.231079,361.061737 
	C331.231079,371.197144 331.231079,380.932281 331.231079,391.064789 
	C341.195557,391.064789 350.937256,391.064789 361.066315,391.064789 
	C361.066315,401.197113 361.066315,410.938873 361.066315,420.766663 
	C371.201813,420.766663 380.937012,420.766663 391.069366,420.766663 
	C391.069366,410.799774 391.069366,401.057892 391.069366,390.929108 
	C401.201782,390.929108 410.943695,390.929108 421.000000,390.929108 
	C421.000000,381.907074 421.000000,373.279785 420.999695,363.678589 
z"/>
<path fill="#FEFFFF" opacity="1.000000" stroke="none" 
	d="
M361.519958,511.054016 
	C361.043610,501.343750 361.030334,491.590729 361.029480,481.361755 
	C370.840302,480.885803 380.638733,480.885803 391.005829,480.885803 
	C391.005829,490.904114 391.005829,500.505493 391.027771,510.578278 
	C381.360809,511.036865 371.671906,511.024078 361.519958,511.054016 
z"/>
<path fill="#FEFEFE" opacity="1.000000" stroke="none" 
	d="
M360.971985,241.421692 
	C370.669159,240.964813 380.387970,240.979309 390.578217,240.972107 
	C391.049622,250.758636 391.049622,260.566864 391.049622,270.686462 
	C381.025574,270.686462 371.298065,270.686462 360.993622,270.686462 
	C360.993622,261.095978 360.993622,251.494522 360.971985,241.421692 
z"/>
<path fill="#000000" opacity="1.000000" stroke="none" 
	d="
M420.999847,364.165558 
	C421.000000,373.279785 421.000000,381.907074 421.000000,390.929108 
	C410.943695,390.929108 401.201782,390.929108 391.069366,390.929108 
	C391.069366,401.057892 391.069366,410.799774 391.069366,420.766663 
	C380.937012,420.766663 371.201813,420.766663 361.066315,420.766663 
	C361.066315,410.938873 361.066315,401.197113 361.066315,391.064789 
	C350.937256,391.064789 341.195557,391.064789 331.231079,391.064789 
	C331.231079,380.932281 331.231079,371.197144 331.231079,361.061737 
	C341.065857,361.061737 350.807556,361.061737 360.939789,361.061737 
	C360.939789,350.932617 360.939789,341.190887 360.939789,331.228760 
	C371.072388,331.228760 380.807495,331.228760 390.942810,331.228760 
	C390.942810,341.070343 390.942810,350.812286 390.942810,361.000092 
	C400.111633,361.000092 408.889038,361.024567 417.666077,360.981049 
	C419.607330,360.971436 421.487366,360.795898 420.999847,364.165558 
z"/>
</svg>